<?xml version="1.0" encoding="utf-8"?>
<!-- Generator: Adobe Illustrator 21.0.0, SVG Export Plug-In . SVG Version: 6.00 Build 0)  -->
<svg version="1.1"
	 id="svg7143" inkscape:export-filename="C:\Invention Studio\logo v3.png" inkscape:export-xdpi="90" inkscape:export-ydpi="90" inkscape:version="0.91 r13725" sodipodi:docname="Logo v3 new colors.svg" xmlns:cc="http://creativecommons.org/ns#" xmlns:dc="http://purl.org/dc/elements/1.1/" xmlns:inkscape="http://www.inkscape.org/namespaces/inkscape" xmlns:rdf="http://www.w3.org/1999/02/22-rdf-syntax-ns#" xmlns:sodipodi="http://sodipodi.sourceforge.net/DTD/sodipodi-0.dtd" xmlns:svg="http://www.w3.org/2000/svg"
	 xmlns="http://www.w3.org/2000/svg" xmlns:xlink="http://www.w3.org/1999/xlink" x="0px" y="0px" viewBox="0 0 1484.6 229"
	 style="enable-background:new 0 0 1484.6 229;" xml:space="preserve">
<style type="text/css">
	.st0{fill:#FFFFFF;}
</style>
<sodipodi:namedview  bordercolor="#666666" borderopacity="1.0" fit-margin-bottom="0" fit-margin-left="0" fit-margin-right="0" fit-margin-top="0" id="base" inkscape:current-layer="layer1" inkscape:cx="1409.8821" inkscape:cy="345.12839" inkscape:document-units="px" inkscape:pageopacity="0.0" inkscape:pageshadow="2" inkscape:window-height="705" inkscape:window-maximized="1" inkscape:window-width="1366" inkscape:window-x="-8" inkscape:window-y="-8" inkscape:zoom="0.35" pagecolor="#ffffff" showgrid="false" units="in">
	</sodipodi:namedview>
<image style="overflow:visible;enable-background:new    ;" width="2864" height="391" id="image3364" xlink:href="5302CEF89100EDEB.jpg"  transform="matrix(2.793296e-04 0 0 2.046036e-03 0 0)">
</image>
<g id="layer1" transform="translate(1049.4986,-13.217563)" inkscape:groupmode="layer" inkscape:label="Layer 1">
	<path id="path3368" inkscape:connector-curvature="0" class="st0" d="M-1049.5,19.2h26.5v135.9h-26.5
		C-1049.5,155.1-1049.5,19.2-1049.5,19.2z"/>
	<g id="g3378" transform="matrix(2.8061356,0,0,-2.7172617,-982.35268,64.957763)">
		<path id="path3380" inkscape:connector-curvature="0" class="st0" d="M-4.8,3.8h9.3V0c2.1,1.8,4,3,5.7,3.7c1.7,0.7,3.5,1,5.2,1
			c3.7,0,6.8-1.3,9.3-3.8C27-1.3,28-4.5,28-8.7v-24.4h-9.2V-17c0,4.4-0.2,7.3-0.6,8.8c-0.4,1.4-1.1,2.6-2.1,3.3
			c-1,0.8-2.2,1.1-3.6,1.1c-1.9,0-3.5-0.6-4.8-1.9c-1.3-1.3-2.3-3-2.8-5.2c-0.3-1.2-0.4-3.7-0.4-7.5v-14.8l-9.3,0V3.8z"/>
	</g>
	<g id="g3382" transform="matrix(2.8061356,0,0,-2.7172617,-982.35268,64.957763)">
		<path id="path3384" inkscape:connector-curvature="0" class="st0" d="M-4.8,3.8h9.3V0c2.1,1.8,4,3,5.7,3.7c1.7,0.7,3.5,1,5.2,1
			c3.7,0,6.8-1.3,9.3-3.8C27-1.3,28-4.5,28-8.7v-24.4h-9.2V-17c0,4.4-0.2,7.3-0.6,8.8c-0.4,1.4-1.1,2.6-2.1,3.3
			c-1,0.8-2.2,1.1-3.6,1.1c-1.9,0-3.5-0.6-4.8-1.9c-1.3-1.3-2.3-3-2.8-5.2c-0.3-1.2-0.4-3.7-0.4-7.5v-14.8l-9.3,0V3.8z"/>
	</g>
	<g id="g3386" transform="matrix(2.8061356,0,0,-2.7172617,-849.67242,64.957763)">
		<path id="path3388" inkscape:connector-curvature="0" class="st0" d="M-14.2,3.8h9.5L4.6-18l9.3,21.8h9.4l-15.7-37h-6L-14.2,3.8z"
			/>
	</g>
	<g id="g3390" transform="matrix(2.8061356,0,0,-2.7172617,-849.67242,64.957763)">
		<path id="path3392" inkscape:connector-curvature="0" class="st0" d="M-14.2,3.8h9.5L4.6-18l9.3,21.8h9.4l-15.7-37h-6L-14.2,3.8z"
			/>
	</g>
	<g id="g3394" transform="matrix(2.8061356,0,0,-2.7172617,-601.54325,112.07486)">
		<path id="path3396" inkscape:connector-curvature="0" class="st0" d="M-31.9,7.3c-0.6,2.1-1.8,3.7-3.6,5c-1.8,1.3-3.9,1.9-6.3,1.9
			c-2.6,0-4.9-0.7-6.8-2.2c-1.2-0.9-2.4-2.5-3.4-4.8H-31.9z M-22.6,0h-29.8c0.4-2.6,1.6-4.7,3.5-6.3c1.9-1.6,4.3-2.3,7.2-2.3
			c3.5,0,6.4,1.2,8.9,3.6l7.8-3.7c-2-2.8-4.3-4.8-7-6.1c-2.7-1.3-5.9-2-9.7-2c-5.8,0-10.5,1.8-14.2,5.5c-3.6,3.7-5.5,8.2-5.5,13.8
			c0,5.6,1.8,10.3,5.5,14.1c3.6,3.7,8.2,5.6,13.7,5.6c5.8,0,10.6-1.9,14.2-5.6c3.6-3.7,5.5-8.7,5.5-14.8C-22.6,1.7-22.6,0-22.6,0z"
			/>
	</g>
	<g id="g3398" transform="matrix(2.8061356,0,0,-2.7172617,-601.54325,112.07486)">
		<path id="path3400" inkscape:connector-curvature="0" class="st0" d="M-31.9,7.3c-0.6,2.1-1.8,3.7-3.6,5c-1.8,1.3-3.9,1.9-6.3,1.9
			c-2.6,0-4.9-0.7-6.8-2.2c-1.2-0.9-2.4-2.5-3.4-4.8H-31.9z M-22.6,0h-29.8c0.4-2.6,1.6-4.7,3.5-6.3c1.9-1.6,4.3-2.3,7.2-2.3
			c3.5,0,6.4,1.2,8.9,3.6l7.8-3.7c-2-2.8-4.3-4.8-7-6.1c-2.7-1.3-5.9-2-9.7-2c-5.8,0-10.5,1.8-14.2,5.5c-3.6,3.7-5.5,8.2-5.5,13.8
			c0,5.6,1.8,10.3,5.5,14.1c3.6,3.7,8.2,5.6,13.7,5.6c5.8,0,10.6-1.9,14.2-5.6c3.6-3.7,5.5-8.7,5.5-14.8C-22.6,1.7-22.6,0-22.6,0z"
			/>
	</g>
	<g id="g3402" transform="matrix(2.8061356,0,0,-2.7172617,-542.62534,64.957763)">
		<path id="path3404" inkscape:connector-curvature="0" class="st0" d="M-36.1,3.8h9.3V0c2.1,1.8,4,3,5.7,3.7c1.7,0.7,3.5,1,5.2,1
			c3.7,0,6.8-1.3,9.3-3.8c2.2-2.2,3.2-5.4,3.2-9.7v-24.4h-9.2V-17c0,4.4-0.2,7.3-0.6,8.8c-0.4,1.4-1.1,2.6-2.1,3.3
			c-1,0.8-2.2,1.1-3.6,1.1c-1.9,0-3.5-0.6-4.8-1.9c-1.3-1.3-2.3-3-2.8-5.2c-0.3-1.2-0.4-3.7-0.4-7.5v-14.8l-9.3,0V3.8z"/>
	</g>
	<g id="g3406" transform="matrix(2.8061356,0,0,-2.7172617,-542.62534,64.957763)">
		<path id="path3408" inkscape:connector-curvature="0" class="st0" d="M-36.1,3.8h9.3V0c2.1,1.8,4,3,5.7,3.7c1.7,0.7,3.5,1,5.2,1
			c3.7,0,6.8-1.3,9.3-3.8c2.2-2.2,3.2-5.4,3.2-9.7v-24.4h-9.2V-17c0,4.4-0.2,7.3-0.6,8.8c-0.4,1.4-1.1,2.6-2.1,3.3
			c-1,0.8-2.2,1.1-3.6,1.1c-1.9,0-3.5-0.6-4.8-1.9c-1.3-1.3-2.3-3-2.8-5.2c-0.3-1.2-0.4-3.7-0.4-7.5v-14.8l-9.3,0V3.8z"/>
	</g>
	<g id="g3410" transform="matrix(2.8061356,0,0,-2.7172617,-392.11349,18.645063)">
		<path id="path3412" inkscape:connector-curvature="0" class="st0" d="M-46.9,0.4h9.3v-13.6h5.5v-8h-5.5v-29h-9.3v29h-4.8v8h4.8
			V0.4z"/>
	</g>
	<g id="g3414" transform="matrix(2.8061356,0,0,-2.7172617,-392.11349,18.645063)">
		<path id="path3416" inkscape:connector-curvature="0" class="st0" d="M-46.9,0.4h9.3v-13.6h5.5v-8h-5.5v-29h-9.3v29h-4.8v8h4.8
			V0.4z"/>
	</g>
	<path id="path3418" inkscape:connector-curvature="0" class="st0" d="M-471,54.6h26v100.5h-26C-471,155.1-471,54.6-471,54.6z
		 M-458,13.2c4.6,0,8.5,1.6,11.7,4.8c3.3,3.2,4.9,7.1,4.9,11.6c0,4.5-1.6,8.3-4.9,11.5c-3.2,3.2-7.1,4.8-11.6,4.8
		c-4.6,0-8.6-1.6-11.8-4.8c-3.3-3.2-4.9-7.2-4.9-11.8c0-4.4,1.6-8.2,4.9-11.4C-466.5,14.8-462.6,13.2-458,13.2"/>
	<path id="path3420" inkscape:connector-curvature="0" class="st0" d="M-471,54.6h26v100.5h-26C-471,155.1-471,54.6-471,54.6z
		 M-458,13.2c4.6,0,8.5,1.6,11.7,4.8c3.3,3.2,4.9,7.1,4.9,11.6c0,4.5-1.6,8.3-4.9,11.5c-3.2,3.2-7.1,4.8-11.6,4.8
		c-4.6,0-8.6-1.6-11.8-4.8c-3.3-3.2-4.9-7.2-4.9-11.8c0-4.4,1.6-8.2,4.9-11.4C-466.5,14.8-462.6,13.2-458,13.2z"/>
	<g id="g3422" transform="matrix(2.8061356,0,0,-2.7172617,-202.78128,91.403562)">
		<path id="path3424" inkscape:connector-curvature="0" class="st0" d="M-60.3,5.8c-2.9,0-5.3-1-7.2-3c-1.9-2-2.9-4.6-2.9-7.7
			c0-3.2,0.9-5.8,2.8-7.8c1.9-2,4.3-3,7.2-3c2.9,0,5.3,1,7.3,3c1.9,2,2.9,4.6,2.9,7.8s-0.9,5.8-2.8,7.7C-55,4.8-57.4,5.8-60.3,5.8
			 M-60.5,14.5c3.5,0,6.8-0.9,9.8-2.6c3.1-1.7,5.5-4.1,7.2-7.1c1.7-3,2.6-6.2,2.6-9.7c0-3.5-0.9-6.8-2.6-9.8c-1.7-3-4.1-5.4-7.1-7.1
			c-3-1.7-6.3-2.6-9.9-2.6c-5.3,0-9.8,1.9-13.6,5.7c-3.8,3.8-5.6,8.4-5.6,13.8c0,5.8,2.1,10.6,6.4,14.5
			C-69.6,12.8-65.3,14.5-60.5,14.5"/>
	</g>
	<g id="g3426" transform="matrix(2.8061356,0,0,-2.7172617,-202.78128,91.403562)">
		<path id="path3428" inkscape:connector-curvature="0" class="st0" d="M-60.3,5.8c-2.9,0-5.3-1-7.2-3c-1.9-2-2.9-4.6-2.9-7.7
			c0-3.2,0.9-5.8,2.8-7.8c1.9-2,4.3-3,7.2-3c2.9,0,5.3,1,7.3,3c1.9,2,2.9,4.6,2.9,7.8s-0.9,5.8-2.8,7.7C-55,4.8-57.4,5.8-60.3,5.8z
			 M-60.5,14.5c3.5,0,6.8-0.9,9.8-2.6c3.1-1.7,5.5-4.1,7.2-7.1c1.7-3,2.6-6.2,2.6-9.7c0-3.5-0.9-6.8-2.6-9.8c-1.7-3-4.1-5.4-7.1-7.1
			c-3-1.7-6.3-2.6-9.9-2.6c-5.3,0-9.8,1.9-13.6,5.7c-3.8,3.8-5.6,8.4-5.6,13.8c0,5.8,2.1,10.6,6.4,14.5
			C-69.6,12.8-65.3,14.5-60.5,14.5z"/>
	</g>
	<g id="g3430" transform="matrix(2.8061356,0,0,-2.7172617,-107.90721,64.957763)">
		<path id="path3432" inkscape:connector-curvature="0" class="st0" d="M-67.1,3.8h9.3V0c2.1,1.8,4,3,5.7,3.7c1.7,0.7,3.5,1,5.2,1
			c3.7,0,6.8-1.3,9.3-3.8c2.2-2.2,3.2-5.4,3.2-9.7v-24.4h-9.2V-17c0,4.4-0.2,7.3-0.6,8.8c-0.4,1.4-1.1,2.6-2.1,3.3
			c-1,0.8-2.2,1.1-3.6,1.1c-1.9,0-3.5-0.6-4.8-1.9c-1.3-1.3-2.3-3-2.8-5.2c-0.3-1.2-0.4-3.7-0.4-7.5v-14.8l-9.3,0V3.8z"/>
	</g>
	<g id="g3434" transform="matrix(2.8061356,0,0,-2.7172617,-107.90721,64.957763)">
		<path id="path3436" inkscape:connector-curvature="0" class="st0" d="M-67.1,3.8h9.3V0c2.1,1.8,4,3,5.7,3.7c1.7,0.7,3.5,1,5.2,1
			c3.7,0,6.8-1.3,9.3-3.8c2.2-2.2,3.2-5.4,3.2-9.7v-24.4h-9.2V-17c0,4.4-0.2,7.3-0.6,8.8c-0.4,1.4-1.1,2.6-2.1,3.3
			c-1,0.8-2.2,1.1-3.6,1.1c-1.9,0-3.5-0.6-4.8-1.9c-1.3-1.3-2.3-3-2.8-5.2c-0.3-1.2-0.4-3.7-0.4-7.5v-14.8l-9.3,0V3.8z"/>
	</g>
	<g id="g3438" transform="matrix(2.8061356,0,0,-2.7172617,202.65588,43.822063)">
		<path id="path3440" inkscape:connector-curvature="0" class="st0" d="M-89.2,2.3L-96.3-4c-2.5,3.4-5,5.2-7.6,5.2
			c-1.2,0-2.3-0.3-3.1-1c-0.8-0.7-1.2-1.4-1.2-2.3c0-0.8,0.3-1.6,0.9-2.4c0.8-1,3.1-3.1,7-6.4c3.6-3,5.8-5,6.6-5.7
			c1.9-1.9,3.3-3.8,4.1-5.6c0.8-1.8,1.2-3.7,1.2-5.8c0-4.1-1.4-7.5-4.3-10.2c-2.8-2.7-6.5-4-11.1-4c-3.6,0-6.7,0.9-9.3,2.6
			c-2.6,1.7-4.9,4.5-6.8,8.2l8,4.8c2.4-4.4,5.2-6.6,8.3-6.6c1.6,0,3,0.5,4.1,1.4c1.1,1,1.7,2.1,1.7,3.3c0,1.1-0.4,2.3-1.3,3.4
			c-0.8,1.1-2.7,2.9-5.6,5.2c-5.4,4.4-9,7.9-10.6,10.3c-1.6,2.4-2.4,4.8-2.4,7.2c0,3.5,1.3,6.4,4,8.9c2.6,2.5,5.9,3.7,9.8,3.7
			c2.5,0,4.9-0.6,7.1-1.7C-94.3,7.4-91.9,5.3-89.2,2.3"/>
	</g>
	<g id="g3442" transform="matrix(2.8061356,0,0,-2.7172617,202.65588,43.822063)">
		<path id="path3444" inkscape:connector-curvature="0" class="st0" d="M-89.2,2.3L-96.3-4c-2.5,3.4-5,5.2-7.6,5.2
			c-1.2,0-2.3-0.3-3.1-1c-0.8-0.7-1.2-1.4-1.2-2.3c0-0.8,0.3-1.6,0.9-2.4c0.8-1,3.1-3.1,7-6.4c3.6-3,5.8-5,6.6-5.7
			c1.9-1.9,3.3-3.8,4.1-5.6c0.8-1.8,1.2-3.7,1.2-5.8c0-4.1-1.4-7.5-4.3-10.2c-2.8-2.7-6.5-4-11.1-4c-3.6,0-6.7,0.9-9.3,2.6
			c-2.6,1.7-4.9,4.5-6.8,8.2l8,4.8c2.4-4.4,5.2-6.6,8.3-6.6c1.6,0,3,0.5,4.1,1.4c1.1,1,1.7,2.1,1.7,3.3c0,1.1-0.4,2.3-1.3,3.4
			c-0.8,1.1-2.7,2.9-5.6,5.2c-5.4,4.4-9,7.9-10.6,10.3c-1.6,2.4-2.4,4.8-2.4,7.2c0,3.5,1.3,6.4,4,8.9c2.6,2.5,5.9,3.7,9.8,3.7
			c2.5,0,4.9-0.6,7.1-1.7C-94.3,7.4-91.9,5.3-89.2,2.3z"/>
	</g>
	<g id="g3446" transform="matrix(2.8061356,0,0,-2.7172617,237.95988,18.645063)">
		<path id="path3448" inkscape:connector-curvature="0" class="st0" d="M-91.8,0.4h9.3v-13.6h5.5v-8h-5.5v-29h-9.3v29h-4.8v8h4.8
			V0.4z"/>
	</g>
	<g id="g3450" transform="matrix(2.8061356,0,0,-2.7172617,237.95988,18.645063)">
		<path id="path3452" inkscape:connector-curvature="0" class="st0" d="M-91.8,0.4h9.3v-13.6h5.5v-8h-5.5v-29h-9.3v29h-4.8v8h4.8
			V0.4z"/>
	</g>
	<g id="g3454" transform="matrix(2.8061356,0,0,-2.7172617,307.13228,64.957763)">
		<path id="path3456" inkscape:connector-curvature="0" class="st0" d="M-96.7,3.8h9.4V-14c0-3.5,0.2-5.9,0.7-7.2
			c0.5-1.3,1.2-2.4,2.3-3.1c1.1-0.7,2.4-1.1,3.9-1.1c1.5,0,2.9,0.4,3.9,1.1c1.1,0.7,1.9,1.8,2.4,3.2c0.4,1.1,0.6,3.3,0.6,6.8V3.8
			h9.3v-15.7c0-6.5-0.5-10.9-1.5-13.3c-1.2-2.9-3.1-5.1-5.5-6.7c-2.4-1.6-5.5-2.3-9.2-2.3c-4.1,0-7.3,0.9-9.8,2.7
			c-2.5,1.8-4.3,4.3-5.3,7.6c-0.7,2.2-1.1,6.3-1.1,12.2V3.8z"/>
	</g>
	<g id="g3458" transform="matrix(2.8061356,0,0,-2.7172617,307.13228,64.957763)">
		<path id="path3460" inkscape:connector-curvature="0" class="st0" d="M-96.7,3.8h9.4V-14c0-3.5,0.2-5.9,0.7-7.2
			c0.5-1.3,1.2-2.4,2.3-3.1c1.1-0.7,2.4-1.1,3.9-1.1c1.5,0,2.9,0.4,3.9,1.1c1.1,0.7,1.9,1.8,2.4,3.2c0.4,1.1,0.6,3.3,0.6,6.8V3.8
			h9.3v-15.7c0-6.5-0.5-10.9-1.5-13.3c-1.2-2.9-3.1-5.1-5.5-6.7c-2.4-1.6-5.5-2.3-9.2-2.3c-4.1,0-7.3,0.9-9.8,2.7
			c-2.5,1.8-4.3,4.3-5.3,7.6c-0.7,2.2-1.1,6.3-1.1,12.2V3.8z"/>
	</g>
	<g id="g3462" transform="matrix(2.8061356,0,0,-2.7172617,515.37278,90.825062)">
		<path id="path3464" inkscape:connector-curvature="0" class="st0" d="M-111.5,5.7c-2.9,0-5.3-1-7.2-3c-1.9-2-2.8-4.6-2.8-7.8
			c0-3.2,1-5.8,2.9-7.9c1.9-2.1,4.3-3.1,7.1-3.1c2.9,0,5.3,1,7.3,3c1.9,2,2.9,4.7,2.9,8c0,3.2-1,5.8-2.9,7.8
			C-106.2,4.7-108.6,5.7-111.5,5.7 M-101.8,27.6h9.3v-51.3h-9.3v3.9c-1.8-1.7-3.6-3-5.5-3.7c-1.8-0.8-3.8-1.1-5.9-1.1
			c-4.8,0-8.9,1.9-12.4,5.6c-3.5,3.7-5.2,8.3-5.2,13.8c0,5.7,1.7,10.4,5.1,14c3.4,3.7,7.5,5.5,12.3,5.5c2.2,0,4.3-0.4,6.2-1.3
			c1.9-0.8,3.7-2.1,5.4-3.8V27.6z"/>
	</g>
	<g id="g3466" transform="matrix(2.8061356,0,0,-2.7172617,515.37278,90.825062)">
		<path id="path3468" inkscape:connector-curvature="0" class="st0" d="M-111.5,5.7c-2.9,0-5.3-1-7.2-3c-1.9-2-2.8-4.6-2.8-7.8
			c0-3.2,1-5.8,2.9-7.9c1.9-2.1,4.3-3.1,7.1-3.1c2.9,0,5.3,1,7.3,3c1.9,2,2.9,4.7,2.9,8c0,3.2-1,5.8-2.9,7.8
			C-106.2,4.7-108.6,5.7-111.5,5.7z M-101.8,27.6h9.3v-51.3h-9.3v3.9c-1.8-1.7-3.6-3-5.5-3.7c-1.8-0.8-3.8-1.1-5.9-1.1
			c-4.8,0-8.9,1.9-12.4,5.6c-3.5,3.7-5.2,8.3-5.2,13.8c0,5.7,1.7,10.4,5.1,14c3.4,3.7,7.5,5.5,12.3,5.5c2.2,0,4.3-0.4,6.2-1.3
			c1.9-0.8,3.7-2.1,5.4-3.8V27.6z"/>
	</g>
	<path id="path3470" inkscape:connector-curvature="0" class="st0" d="M279.3,54.6h26v100.5h-26C279.3,155.1,279.3,54.6,279.3,54.6z
		 M292.3,13.2c4.6,0,8.5,1.6,11.7,4.8c3.3,3.2,4.9,7.1,4.9,11.6c0,4.5-1.6,8.3-4.9,11.5c-3.2,3.2-7.1,4.8-11.6,4.8
		c-4.6,0-8.6-1.6-11.8-4.8c-3.3-3.2-4.9-7.2-4.9-11.8c0-4.4,1.6-8.2,4.9-11.4C283.9,14.8,287.8,13.2,292.3,13.2"/>
	<path id="path3472" inkscape:connector-curvature="0" class="st0" d="M279.3,54.6h26v100.5h-26C279.3,155.1,279.3,54.6,279.3,54.6z
		 M292.3,13.2c4.6,0,8.5,1.6,11.7,4.8c3.3,3.2,4.9,7.1,4.9,11.6c0,4.5-1.6,8.3-4.9,11.5c-3.2,3.2-7.1,4.8-11.6,4.8
		c-4.6,0-8.6-1.6-11.8-4.8c-3.3-3.2-4.9-7.2-4.9-11.8c0-4.4,1.6-8.2,4.9-11.4C283.9,14.8,287.8,13.2,292.3,13.2z"/>
	<g id="g3474" transform="matrix(2.8061356,0,0,-2.7172617,735.11178,91.403562)">
		<path id="path3476" inkscape:connector-curvature="0" class="st0" d="M-127.2,5.8c-2.9,0-5.3-1-7.2-3c-1.9-2-2.9-4.6-2.9-7.7
			c0-3.2,0.9-5.8,2.8-7.8c1.9-2,4.3-3,7.2-3c2.9,0,5.3,1,7.3,3c1.9,2,2.9,4.6,2.9,7.8s-0.9,5.8-2.8,7.7
			C-121.8,4.8-124.2,5.8-127.2,5.8 M-127.3,14.5c3.5,0,6.8-0.9,9.8-2.6c3.1-1.7,5.5-4.1,7.2-7.1c1.7-3,2.6-6.2,2.6-9.7
			c0-3.5-0.9-6.8-2.6-9.8c-1.7-3-4.1-5.4-7.1-7.1c-3-1.7-6.3-2.6-9.9-2.6c-5.3,0-9.8,1.9-13.6,5.7c-3.8,3.8-5.6,8.4-5.6,13.8
			c0,5.8,2.1,10.6,6.4,14.5C-136.4,12.8-132.2,14.5-127.3,14.5"/>
	</g>
	<g id="g3478" transform="matrix(2.8061356,0,0,-2.7172617,735.11178,91.403562)">
		<path id="path3480" inkscape:connector-curvature="0" class="st0" d="M-127.2,5.8c-2.9,0-5.3-1-7.2-3c-1.9-2-2.9-4.6-2.9-7.7
			c0-3.2,0.9-5.8,2.8-7.8c1.9-2,4.3-3,7.2-3c2.9,0,5.3,1,7.3,3c1.9,2,2.9,4.6,2.9,7.8s-0.9,5.8-2.8,7.7
			C-121.8,4.8-124.2,5.8-127.2,5.8z M-127.3,14.5c3.5,0,6.8-0.9,9.8-2.6c3.1-1.7,5.5-4.1,7.2-7.1c1.7-3,2.6-6.2,2.6-9.7
			c0-3.5-0.9-6.8-2.6-9.8c-1.7-3-4.1-5.4-7.1-7.1c-3-1.7-6.3-2.6-9.9-2.6c-5.3,0-9.8,1.9-13.6,5.7c-3.8,3.8-5.6,8.4-5.6,13.8
			c0,5.8,2.1,10.6,6.4,14.5C-136.4,12.8-132.2,14.5-127.3,14.5z"/>
	</g>
	<g id="g3618" transform="matrix(2.8061356,0,0,-2.7172617,129.02768,243.98266)">
		<path id="path3620" inkscape:connector-curvature="0" class="st0" d="M-84,17c-1.1,0-2-0.4-2.7-1.1c-0.7-0.8-1.1-1.7-1.1-2.9
			c0-1.2,0.4-2.2,1.1-2.9c0.7-0.8,1.6-1.2,2.7-1.2c1.1,0,2,0.4,2.7,1.1c0.7,0.8,1.1,1.7,1.1,3c0,1.2-0.4,2.2-1.1,2.9
			C-82,16.6-82.9,17-84,17 M-80.4,19.8h3.5V6h-3.5v1.5c-0.7-0.6-1.4-1.1-2-1.4c-0.7-0.3-1.4-0.4-2.2-0.4c-1.8,0-3.3,0.7-4.6,2.1
			c-1.3,1.4-1.9,3.1-1.9,5.2c0,2.1,0.6,3.9,1.9,5.2c1.3,1.4,2.8,2,4.6,2c0.8,0,1.6-0.2,2.3-0.5c0.7-0.3,1.4-0.8,2-1.4
			C-80.4,18.3-80.4,19.8-80.4,19.8z"/>
	</g>
	<g id="g3622" transform="matrix(2.8061356,0,0,-2.7172617,167.65588,217.08206)">
		<path id="path3624" inkscape:connector-curvature="0" class="st0" d="M-86.7,15h3.5V9.9h2.1v-3h-2.1V-3.9h-3.5V6.9h-1.8v3h1.8V15z
			"/>
	</g>
	<g id="g3626" transform="matrix(2.8061356,0,0,-2.7172617,280.64408,228.18726)">
		<path id="path3628" inkscape:connector-curvature="0" class="st0" d="M-94.8,15.8l-2.5-2.5c-1.6,1.7-3.4,2.5-5.5,2.5
			c-1.8,0-3.4-0.6-4.6-1.8c-1.2-1.2-1.9-2.7-1.9-4.4c0-1.8,0.6-3.3,1.9-4.6c1.3-1.3,2.9-1.9,4.8-1.9c1.2,0,2.3,0.3,3.1,0.8
			c0.8,0.5,1.5,1.3,2,2.4h-5.4v3.3h9.4l0-0.8c0-1.6-0.4-3.2-1.3-4.6c-0.8-1.5-1.9-2.6-3.3-3.3c-1.3-0.8-2.9-1.2-4.7-1.2
			c-1.9,0-3.7,0.4-5.2,1.3c-1.5,0.8-2.7,2-3.6,3.6c-0.9,1.6-1.3,3.2-1.3,5c0,2.5,0.8,4.6,2.4,6.4c1.9,2.2,4.5,3.3,7.6,3.3
			c1.6,0,3.1-0.3,4.5-0.9C-97.1,17.9-95.9,17.1-94.8,15.8"/>
	</g>
	<g id="g3630" transform="matrix(2.8061356,0,0,-2.7172617,331.71628,251.90236)">
		<path id="path3632" inkscape:connector-curvature="0" class="st0" d="M-98.4,17.6c-0.2,0.8-0.7,1.4-1.4,1.9
			c-0.7,0.5-1.5,0.7-2.3,0.7c-1,0-1.8-0.3-2.5-0.8c-0.5-0.3-0.9-0.9-1.3-1.8H-98.4z M-95,14.8h-11.1c0.2-1,0.6-1.8,1.3-2.3
			c0.7-0.6,1.6-0.9,2.7-0.9c1.3,0,2.4,0.5,3.3,1.4l2.9-1.4c-0.7-1-1.6-1.8-2.6-2.3c-1-0.5-2.2-0.7-3.6-0.7c-2.2,0-3.9,0.7-5.3,2
			c-1.4,1.4-2,3.1-2,5.1c0,2.1,0.7,3.9,2,5.2c1.4,1.4,3.1,2.1,5.1,2.1c2.2,0,3.9-0.7,5.3-2.1c1.4-1.4,2-3.2,2-5.5L-95,14.8z"/>
	</g>
	<g id="g3634" transform="matrix(2.8061356,0,0,-2.7172617,376.58978,244.19896)">
		<path id="path3636" inkscape:connector-curvature="0" class="st0" d="M-101.6,17c-1.1,0-2-0.4-2.7-1.1c-0.7-0.7-1.1-1.7-1.1-2.9
			c0-1.2,0.4-2.2,1.1-2.9c0.7-0.7,1.6-1.1,2.7-1.1c1.1,0,2,0.4,2.7,1.1c0.7,0.8,1.1,1.7,1.1,2.9c0,1.2-0.4,2.1-1.1,2.9
			C-99.6,16.6-100.5,17-101.6,17 M-101.7,20.3c1.3,0,2.5-0.3,3.7-1c1.1-0.7,2-1.5,2.7-2.6c0.6-1.1,1-2.3,1-3.6c0-1.3-0.3-2.5-1-3.6
			c-0.6-1.1-1.5-2-2.6-2.7c-1.1-0.6-2.3-1-3.7-1c-2,0-3.7,0.7-5.1,2.1c-1.4,1.4-2.1,3.1-2.1,5.1c0,2.2,0.8,3.9,2.4,5.4
			C-105.1,19.6-103.5,20.3-101.7,20.3"/>
	</g>
	<g id="g3638" transform="matrix(2.8061356,0,0,-2.7172617,409.10138,234.34236)">
		<path id="path3640" inkscape:connector-curvature="0" class="st0" d="M-104,16.3h3v-1.7c0.3,0.7,0.7,1.2,1.3,1.6
			c0.5,0.4,1.1,0.5,1.7,0.5c0.4,0,0.9-0.1,1.4-0.4l-1.1-3c-0.4,0.2-0.7,0.3-1,0.3c-0.5,0-1-0.3-1.3-1c-0.4-0.7-0.6-2-0.6-3.9l0-0.7
			V2.5h-3.4V16.3z"/>
	</g>
	<g id="g3642" transform="matrix(2.8061356,0,0,-2.7172617,464.22118,244.11286)">
		<path id="path3644" inkscape:connector-curvature="0" class="st0" d="M-107.9,17c-1.1,0-2-0.4-2.7-1.1c-0.7-0.7-1.1-1.6-1.1-2.8
			c0-1.1,0.4-2.1,1.1-2.8c0.7-0.7,1.6-1.1,2.7-1.1c1.1,0,2,0.4,2.7,1.1c0.7,0.7,1,1.7,1,2.8c0,1.1-0.4,2.1-1.1,2.8
			C-105.9,16.6-106.8,17-107.9,17 M-104.3,19.9h3.4V8.1c0-2.3-0.5-4-1.4-5.1c-1.3-1.5-3.2-2.2-5.7-2.2c-1.4,0-2.5,0.2-3.4,0.5
			c-0.9,0.3-1.7,0.8-2.3,1.5c-0.6,0.7-1.1,1.5-1.4,2.4h3.8c0.3-0.4,0.8-0.7,1.3-0.9c0.5-0.2,1.2-0.3,1.9-0.3c0.9,0,1.7,0.1,2.2,0.4
			c0.6,0.3,1,0.7,1.2,1.1c0.2,0.5,0.3,1.2,0.3,2.4c-0.6-0.6-1.2-1-1.9-1.3c-0.7-0.3-1.4-0.4-2.3-0.4c-1.9,0-3.4,0.7-4.7,2
			c-1.3,1.3-1.9,3-1.9,5.1c0,2.2,0.7,3.9,2,5.3c1.2,1.2,2.7,1.8,4.4,1.8c0.8,0,1.5-0.1,2.2-0.4c0.7-0.3,1.4-0.8,2.1-1.4
			C-104.3,18.4-104.3,19.9-104.3,19.9z"/>
	</g>
	<path id="path3646" inkscape:connector-curvature="0" class="st0" d="M190,190.1h9.7v37.5H190V190.1L190,190.1z M194.8,174.7
		c1.7,0,3.2,0.6,4.4,1.8c1.2,1.2,1.8,2.6,1.8,4.3c0,1.7-0.6,3.1-1.8,4.3c-1.2,1.2-2.6,1.8-4.3,1.8c-1.7,0-3.2-0.6-4.4-1.8
		c-1.2-1.2-1.8-2.7-1.8-4.4c0-1.7,0.6-3.1,1.8-4.2C191.7,175.3,193.1,174.7,194.8,174.7"/>
	<g id="g3648" transform="matrix(2.8061356,0,0,-2.7172617,545.91958,243.98266)">
		<path id="path3650" inkscape:connector-curvature="0" class="st0" d="M-113.7,17c-1.1,0-2-0.4-2.7-1.1c-0.7-0.8-1.1-1.7-1.1-2.9
			c0-1.2,0.4-2.2,1.1-2.9c0.7-0.8,1.6-1.2,2.7-1.2c1.1,0,2,0.4,2.7,1.1c0.7,0.8,1.1,1.7,1.1,3c0,1.2-0.4,2.2-1.1,2.9
			C-111.7,16.6-112.6,17-113.7,17 M-110.1,19.8h3.5V6h-3.5v1.5c-0.7-0.6-1.4-1.1-2-1.4c-0.7-0.3-1.4-0.4-2.2-0.4
			c-1.8,0-3.3,0.7-4.6,2.1c-1.3,1.4-1.9,3.1-1.9,5.2c0,2.1,0.6,3.9,1.9,5.2c1.3,1.4,2.8,2,4.6,2c0.8,0,1.6-0.2,2.3-0.5
			c0.7-0.3,1.4-0.8,2-1.4C-110.1,18.3-110.1,19.8-110.1,19.8z"/>
	</g>
	<g id="g3652" transform="matrix(2.8061356,0,0,-2.7172617,603.43718,217.85696)">
		<path id="path3654" inkscape:connector-curvature="0" class="st0" d="M-117.8,15.1h10.3v-3.5h-3.4V-3.6h-3.6v15.1l-3.3,0V15.1z"/>
	</g>
	<g id="g3656" transform="matrix(2.8061356,0,0,-2.7172617,683.08878,251.90236)">
		<path id="path3658" inkscape:connector-curvature="0" class="st0" d="M-123.5,17.6c-0.2,0.8-0.7,1.4-1.4,1.9
			c-0.7,0.5-1.5,0.7-2.3,0.7c-1,0-1.8-0.3-2.5-0.8c-0.5-0.3-0.9-0.9-1.3-1.8H-123.5z M-120,14.8h-11.1c0.2-1,0.6-1.8,1.3-2.3
			c0.7-0.6,1.6-0.9,2.7-0.9c1.3,0,2.4,0.5,3.3,1.4l2.9-1.4c-0.7-1-1.6-1.8-2.6-2.3c-1-0.5-2.2-0.7-3.6-0.7c-2.2,0-3.9,0.7-5.3,2
			c-1.4,1.4-2,3.1-2,5.1c0,2.1,0.7,3.9,2,5.2c1.4,1.4,3.1,2.1,5.1,2.1c2.2,0,3.9-0.7,5.3-2.1c1.4-1.4,2-3.2,2-5.5L-120,14.8z"/>
	</g>
	<g id="g3660" transform="matrix(2.8061356,0,0,-2.7172617,752.38718,243.81146)">
		<path id="path3662" inkscape:connector-curvature="0" class="st0" d="M-128.4,17l-2.9-1.6c-0.5,0.6-1.1,1-1.6,1.2
			c-0.5,0.2-1.1,0.3-1.9,0.3c-1.3,0-2.3-0.4-3.1-1.2c-0.8-0.8-1.2-1.8-1.2-3c0-1.2,0.4-2.1,1.2-2.9c0.8-0.7,1.8-1.1,3-1.1
			c1.5,0,2.8,0.5,3.6,1.6l2.7-1.9c-1.5-1.9-3.6-2.9-6.3-2.9c-2.4,0-4.3,0.7-5.7,2.2c-1.4,1.4-2.1,3.1-2.1,5c0,1.3,0.3,2.6,1,3.7
			c0.7,1.1,1.6,2,2.8,2.6c1.2,0.6,2.5,1,4,1c1.4,0,2.6-0.3,3.7-0.8C-130,18.8-129.1,18-128.4,17"/>
	</g>
	<g id="g3664" transform="matrix(2.8061356,0,0,-2.7172617,763.36498,216.26466)">
		<path id="path3666" inkscape:connector-curvature="0" class="st0" d="M-129.2,14.9h3.4V8.2c0.7,0.6,1.4,1,2,1.3
			c0.7,0.3,1.4,0.4,2.1,0.4c1.4,0,2.5-0.5,3.5-1.4c0.8-0.8,1.2-2,1.2-3.6v-9.1h-3.4v6c0,1.6-0.1,2.7-0.2,3.2c-0.2,0.6-0.4,1-0.8,1.3
			c-0.4,0.3-0.8,0.4-1.4,0.4c-0.7,0-1.3-0.2-1.8-0.7c-0.5-0.5-0.9-1.1-1-1.9c-0.1-0.4-0.2-1.4-0.2-2.8v-5.5h-3.4V14.9z"/>
	</g>
</g>
</svg>
