<?xml version="1.0" encoding="utf-8"?>
<!-- Generator: Adobe Illustrator 21.0.0, SVG Export Plug-In . SVG Version: 6.00 Build 0)  -->
<svg version="1.1"
	 id="svg7143" inkscape:export-filename="C:\Invention Studio\logo v3.png" inkscape:export-xdpi="90" inkscape:export-ydpi="90" inkscape:version="0.91 r13725" sodipodi:docname="Logo v3 new colors.svg" xmlns:cc="http://creativecommons.org/ns#" xmlns:dc="http://purl.org/dc/elements/1.1/" xmlns:inkscape="http://www.inkscape.org/namespaces/inkscape" xmlns:rdf="http://www.w3.org/1999/02/22-rdf-syntax-ns#" xmlns:sodipodi="http://sodipodi.sourceforge.net/DTD/sodipodi-0.dtd" xmlns:svg="http://www.w3.org/2000/svg"
	 xmlns="http://www.w3.org/2000/svg" xmlns:xlink="http://www.w3.org/1999/xlink" x="0px" y="0px" viewBox="0 0 1153 649"
	 style="enable-background:new 0 0 1153 649;" xml:space="preserve">
<style type="text/css">
	.st0{fill:#10161A;}
	.st1{fill:#F5D22F;}
	.st2{fill:#10161A;stroke:#343434;stroke-miterlimit:10;}
	.st3{fill:none;stroke:#10161A;stroke-width:4.8049;stroke-miterlimit:10;}
	.st4{fill:none;stroke:#10161A;stroke-width:7;stroke-miterlimit:10;}
	.st5{fill:#FFFFFF;}
</style>
<sodipodi:namedview  bordercolor="#666666" borderopacity="1.0" fit-margin-bottom="0" fit-margin-left="0" fit-margin-right="0" fit-margin-top="0" id="base" inkscape:current-layer="layer1" inkscape:cx="1409.8821" inkscape:cy="345.12839" inkscape:document-units="px" inkscape:pageopacity="0.0" inkscape:pageshadow="2" inkscape:window-height="705" inkscape:window-maximized="1" inkscape:window-width="1366" inkscape:window-x="-8" inkscape:window-y="-8" inkscape:zoom="0.35" pagecolor="#ffffff" showgrid="false" units="in">
	</sodipodi:namedview>
<g id="g5408" transform="translate(267.33972,-100.33606)">
	<path id="path3368" inkscape:connector-curvature="0" class="st0" d="M-123.5,186.9H-97v135.9h-26.5V186.9z"/>
	<g id="g3382" transform="matrix(2.8061356,0,0,-2.7172617,-930.79727,-303.04224)">
		<path id="path3384" inkscape:connector-curvature="0" class="st0" d="M302.9-193.3h9.3v-3.8c2.1,1.8,4,3,5.7,3.7s3.5,1,5.2,1
			c3.7,0,6.8-1.3,9.3-3.8c2.2-2.2,3.2-5.4,3.2-9.7v-24.4h-9.2v16.2c0,4.4-0.2,7.3-0.6,8.8c-0.3,1.4-1,2.5-2,3.3s-2.2,1.1-3.6,1.1
			c-1.9,0-3.5-0.6-4.8-1.9c-1.3-1.3-2.3-3-2.8-5.2c-0.3-1.1-0.4-3.6-0.4-7.5v-14.8h-9.3L302.9-193.3L302.9-193.3z"/>
	</g>
	<g id="g3390" transform="matrix(2.8061356,0,0,-2.7172617,-816.11701,-303.04224)">
		<path id="path3392" inkscape:connector-curvature="0" class="st0" d="M294.7-193.3h9.5l9.3-21.8l9.3,21.8h9.4l-15.7-37h-6
			L294.7-193.3z"/>
	</g>
	<g id="g3398" transform="matrix(2.8061356,0,0,-2.7172617,-585.98784,-255.92514)">
		<path id="path3400" inkscape:connector-curvature="0" class="st0" d="M278.3-189.9c-0.6,2.1-1.8,3.7-3.6,5
			c-1.8,1.3-3.9,1.9-6.3,1.9c-2.6,0-4.9-0.7-6.8-2.2c-1.2-0.9-2.4-2.5-3.4-4.8L278.3-189.9L278.3-189.9z M287.6-197.2h-29.8
			c0.4-2.6,1.5-4.7,3.4-6.3s4.3-2.3,7.2-2.3c3.5,0,6.4,1.2,8.9,3.6l7.8-3.7c-2-2.8-4.3-4.8-7-6.1s-5.9-2-9.7-2
			c-5.8,0-10.5,1.8-14.2,5.5c-3.6,3.7-5.5,8.2-5.5,13.8s1.8,10.3,5.5,14.1c3.6,3.7,8.2,5.6,13.7,5.6c5.8,0,10.6-1.9,14.2-5.6
			c3.6-3.7,5.5-8.7,5.5-14.8V-197.2z"/>
	</g>
	<g id="g3406" transform="matrix(2.8061356,0,0,-2.7172617,-539.06993,-303.04224)">
		<path id="path3408" inkscape:connector-curvature="0" class="st0" d="M275-193.3h9.3v-3.8c2.1,1.8,4,3,5.7,3.7s3.5,1,5.2,1
			c3.7,0,6.8-1.3,9.3-3.8c2.2-2.2,3.2-5.4,3.2-9.7v-24.4h-9.2v16.2c0,4.4-0.2,7.3-0.6,8.8c-0.4,1.4-1.1,2.6-2.1,3.3
			c-1,0.8-2.2,1.1-3.6,1.1c-1.9,0-3.5-0.6-4.8-1.9c-1.3-1.3-2.3-3-2.8-5.2c-0.2-1.1-0.4-3.6-0.4-7.5v-14.8h-9.3L275-193.3L275-193.3
			z"/>
	</g>
	<g id="g3414" transform="matrix(2.8061356,0,0,-2.7172617,-396.55808,-349.35494)">
		<path id="path3416" inkscape:connector-curvature="0" class="st0" d="M264.8-196.8h9.3v-13.6h5.5v-8h-5.5v-29h-9.3v29H260v8h4.8
			V-196.8z"/>
	</g>
	<path id="path3420" inkscape:connector-curvature="0" class="st0" d="M397.4,222.3h26v100.5h-26V222.3z M410.4,180.9
		c4.6,0,8.5,1.6,11.7,4.8c3.3,3.2,4.9,7.1,4.9,11.6s-1.6,8.3-4.9,11.5c-3.2,3.2-7.1,4.8-11.6,4.8c-4.6,0-8.6-1.6-11.8-4.8
		c-3.3-3.2-4.9-7.2-4.9-11.8c0-4.4,1.6-8.2,4.9-11.4C401.9,182.5,405.9,180.9,410.4,180.9z"/>
	<g id="g3426" transform="matrix(2.8061356,0,0,-2.7172617,-219.22587,-276.59644)">
		<path id="path3428" inkscape:connector-curvature="0" class="st0" d="M252.2-191.4c-2.9,0-5.3-1-7.2-3s-2.9-4.6-2.9-7.7
			c0-3.2,0.9-5.8,2.8-7.8c1.9-2,4.3-3,7.2-3s5.3,1,7.3,3c1.9,2,2.9,4.6,2.9,7.8s-0.9,5.8-2.8,7.7
			C257.5-192.4,255.1-191.4,252.2-191.4z M252-182.7c3.5,0,6.8-0.9,9.8-2.6c3.1-1.7,5.5-4.1,7.2-7.1s2.6-6.2,2.6-9.7
			s-0.9-6.8-2.6-9.8s-4.1-5.4-7.1-7.1s-6.3-2.6-9.9-2.6c-5.3,0-9.8,1.9-13.6,5.7s-5.6,8.4-5.6,13.8c0,5.8,2.1,10.6,6.4,14.5
			C242.9-184.3,247.2-182.7,252-182.7z"/>
	</g>
	<g id="g3434" transform="matrix(2.8061356,0,0,-2.7172617,-136.3518,-303.04224)">
		<path id="path3436" inkscape:connector-curvature="0" class="st0" d="M246.3-193.3h9.3v-3.8c2.1,1.8,4,3,5.7,3.7s3.5,1,5.2,1
			c3.7,0,6.8-1.3,9.3-3.8c2.2-2.2,3.2-5.4,3.2-9.7v-24.4h-9.2v16.2c0,4.4-0.2,7.3-0.6,8.8c-0.3,1.4-1,2.5-2,3.3s-2.2,1.1-3.6,1.1
			c-1.9,0-3.5-0.6-4.8-1.9c-1.3-1.3-2.3-3-2.8-5.2c-0.3-1.2-0.4-3.7-0.4-7.5v-14.8h-9.3L246.3-193.3L246.3-193.3z"/>
	</g>
</g>
<g id="g5395" transform="translate(-741.59522,99.66394)">
	<g id="g3438" transform="matrix(2.8061356,0,0,-2.7172617,132.21129,-324.17794)">
		<path id="path3440" inkscape:connector-curvature="0" class="st0" d="M299-180.2l-7.1-6.2c-2.5,3.4-5,5.2-7.6,5.2
			c-1.2,0-2.3-0.3-3.1-1c-0.8-0.7-1.2-1.4-1.2-2.3c0-0.8,0.3-1.6,0.9-2.4c0.8-1,3.1-3.1,7-6.4c3.6-3,5.8-5,6.6-5.7
			c1.9-1.9,3.3-3.8,4.1-5.6c0.8-1.8,1.2-3.7,1.2-5.8c0-4.1-1.4-7.5-4.3-10.2c-2.8-2.7-6.5-4-11.1-4c-3.6,0-6.7,0.9-9.3,2.6
			c-2.6,1.7-4.9,4.5-6.8,8.2l8,4.8c2.4-4.4,5.2-6.6,8.3-6.6c1.6,0,3,0.5,4.1,1.4c1.1,1,1.7,2.1,1.7,3.3c0,1.1-0.4,2.3-1.3,3.4
			c-0.8,1.1-2.7,2.9-5.6,5.2c-5.4,4.4-9,7.9-10.6,10.3c-1.6,2.4-2.4,4.8-2.4,7.2c0,3.5,1.3,6.4,4,8.9c2.6,2.5,5.9,3.7,9.8,3.7
			c2.5,0,4.9-0.6,7.1-1.7C293.9-175,296.4-177.1,299-180.2"/>
	</g>
	<g id="g3446" transform="matrix(2.8061356,0,0,-2.7172617,155.51529,-349.35494)">
		<path id="path3448" inkscape:connector-curvature="0" class="st0" d="M297.4-182h9.3v-13.7h5.5v-8h-5.5v-29h-9.3v29h-4.8v8h4.8
			V-182z"/>
	</g>
	<g id="g3454" transform="matrix(2.8061356,0,0,-2.7172617,220.68769,-303.04224)">
		<path id="path3456" inkscape:connector-curvature="0" class="st0" d="M292.7-178.6h9.4v-17.8c0-3.5,0.2-5.9,0.7-7.2
			s1.2-2.4,2.3-3.1s2.4-1.1,3.9-1.1s2.9,0.4,3.9,1.1c1.1,0.7,1.9,1.8,2.4,3.2c0.4,1.1,0.6,3.3,0.6,6.8v18.1h9.3v-15.7
			c0-6.5-0.5-10.9-1.5-13.3c-1.2-2.9-3.1-5.1-5.5-6.7s-5.5-2.3-9.2-2.3c-4.1,0-7.3,0.9-9.8,2.7s-4.3,4.3-5.3,7.6
			c-0.7,2.2-1.1,6.3-1.1,12.2L292.7-178.6L292.7-178.6L292.7-178.6z"/>
	</g>
	<g id="g3462" transform="matrix(2.8061356,0,0,-2.7172617,412.92819,-277.17494)">
		<path id="path3464" inkscape:connector-curvature="0" class="st0" d="M279-176.7c-2.9,0-5.3-1-7.2-3s-2.8-4.6-2.8-7.8
			s1-5.8,2.9-7.9c1.9-2.1,4.3-3.1,7.1-3.1c2.9,0,5.3,1,7.3,3c1.9,2,2.9,4.7,2.9,8c0,3.2-1,5.8-2.9,7.8S282-176.7,279-176.7
			 M288.8-154.8h9.3v-51.3h-9.3v3.9c-1.8-1.7-3.6-3-5.5-3.7c-1.8-0.8-3.8-1.1-5.9-1.1c-4.8,0-8.9,1.9-12.4,5.6s-5.2,8.3-5.2,13.8
			c0,5.7,1.7,10.4,5.1,14c3.4,3.7,7.5,5.5,12.3,5.5c2.2,0,4.3-0.4,6.2-1.3c1.9-0.8,3.7-2.1,5.4-3.8V-154.8L288.8-154.8z"/>
	</g>
	<path id="path3470" inkscape:connector-curvature="0" class="st0" d="M1266.3,180.7h26v100.5h-26V180.7z M1279.3,139.3
		c4.6,0,8.5,1.6,11.7,4.8c3.3,3.2,4.9,7.1,4.9,11.6s-1.6,8.3-4.9,11.5c-3.2,3.2-7.1,4.8-11.6,4.8c-4.6,0-8.6-1.6-11.8-4.8
		c-3.3-3.2-4.9-7.2-4.9-11.8c0-4.4,1.6-8.2,4.9-11.4C1270.9,140.9,1274.8,139.3,1279.3,139.3"/>
	<g id="g3474" transform="matrix(2.8061356,0,0,-2.7172617,616.66719,-276.59644)">
		<path id="path3476" inkscape:connector-curvature="0" class="st0" d="M264.5-176.7c-2.9,0-5.3-1-7.2-3s-2.9-4.6-2.9-7.7
			c0-3.2,0.9-5.8,2.8-7.8s4.3-3,7.2-3s5.3,1,7.3,3c1.9,2,2.9,4.6,2.9,7.8s-0.9,5.8-2.8,7.7C269.9-177.7,267.4-176.7,264.5-176.7
			 M264.3-167.9c3.5,0,6.8-0.9,9.8-2.6c3.1-1.7,5.5-4.1,7.2-7.1s2.6-6.2,2.6-9.7s-0.9-6.8-2.6-9.8s-4.1-5.4-7.1-7.1
			s-6.3-2.6-9.9-2.6c-5.3,0-9.8,1.9-13.6,5.7c-3.7,3.7-5.5,8.3-5.5,13.7c0,5.8,2.1,10.6,6.4,14.5
			C255.2-169.6,259.5-167.9,264.3-167.9"/>
	</g>
</g>
<g id="g5426" transform="translate(259.97316,102.52109)">
	<g id="g3618" transform="matrix(2.8061356,0,0,-2.7172617,-951.41691,-125.1602)">
		<path id="path3620" inkscape:connector-curvature="0" class="st1" d="M304.9-165.3c-1.1,0-2-0.4-2.7-1.1c-0.7-0.8-1.1-1.7-1.1-2.9
			s0.4-2.2,1.1-2.9c0.7-0.8,1.6-1.2,2.7-1.2s2,0.4,2.7,1.1c0.7,0.8,1.1,1.7,1.1,3c0,1.2-0.4,2.2-1.1,2.9S306-165.3,304.9-165.3
			 M308.5-162.5h3.5v-13.8h-3.5v1.5c-0.7-0.6-1.4-1.1-2-1.4c-0.7-0.3-1.4-0.4-2.2-0.4c-1.8,0-3.3,0.7-4.6,2.1
			c-1.3,1.4-1.9,3.1-1.9,5.2c0,2.1,0.6,3.9,1.9,5.2c1.3,1.4,2.8,2,4.6,2c0.8,0,1.6-0.2,2.3-0.5c0.7-0.3,1.4-0.8,2-1.4
			C308.5-164,308.5-162.5,308.5-162.5z"/>
	</g>
	<g id="g3622" transform="matrix(2.8061356,0,0,-2.7172617,-912.78871,-152.0608)">
		<path id="path3624" inkscape:connector-curvature="0" class="st1" d="M302.1-167.3h3.5v-5.1h2.1v-3h-2.1v-10.8h-3.5v10.8h-1.8v3
			h1.8V-167.3z"/>
	</g>
	<g id="g3626" transform="matrix(2.8061356,0,0,-2.7172617,-799.80051,-140.9556)">
		<path id="path3628" inkscape:connector-curvature="0" class="st1" d="M294.1-166.5l-2.5-2.5c-1.6,1.7-3.4,2.5-5.5,2.5
			c-1.8,0-3.4-0.6-4.6-1.8s-1.9-2.7-1.9-4.4c0-1.8,0.6-3.3,1.9-4.6s2.9-1.9,4.8-1.9c1.2,0,2.3,0.3,3.1,0.8c0.8,0.5,1.5,1.3,2,2.4
			H286v3.3h9.4v-0.8c0-1.6-0.4-3.2-1.3-4.6c-0.9-1.4-1.9-2.6-3.3-3.3c-1.3-0.8-2.9-1.2-4.7-1.2c-1.9,0-3.7,0.4-5.2,1.3
			c-1.5,0.8-2.7,2-3.6,3.6s-1.3,3.2-1.3,5c0,2.5,0.8,4.6,2.4,6.4c1.9,2.2,4.5,3.3,7.6,3.3c1.6,0,3.1-0.3,4.5-0.9
			C291.8-164.4,292.9-165.2,294.1-166.5"/>
	</g>
	<g id="g3630" transform="matrix(2.8061356,0,0,-2.7172617,-748.72831,-117.2405)">
		<path id="path3632" inkscape:connector-curvature="0" class="st1" d="M290.4-164.7c-0.2,0.8-0.7,1.4-1.4,1.9
			c-0.7,0.5-1.5,0.7-2.3,0.7c-1,0-1.8-0.3-2.5-0.8c-0.5-0.3-0.9-0.9-1.3-1.8L290.4-164.7L290.4-164.7z M293.9-167.5h-11.1
			c0.2-1,0.6-1.8,1.3-2.3c0.7-0.6,1.6-0.9,2.7-0.9c1.3,0,2.4,0.5,3.3,1.4l2.9-1.4c-0.7-1-1.6-1.8-2.6-2.3s-2.2-0.7-3.6-0.7
			c-2.2,0-3.9,0.7-5.3,2c-1.4,1.4-2,3.1-2,5.1c0,2.1,0.7,3.9,2,5.2c1.4,1.4,3.1,2.1,5.1,2.1c2.2,0,3.9-0.7,5.3-2.1
			c1.4-1.4,2-3.2,2-5.5L293.9-167.5L293.9-167.5z"/>
	</g>
	<g id="g3634" transform="matrix(2.8061356,0,0,-2.7172617,-703.85481,-124.9439)">
		<path id="path3636" inkscape:connector-curvature="0" class="st1" d="M287.2-165.3c-1.1,0-2-0.4-2.7-1.1c-0.7-0.7-1.1-1.7-1.1-2.9
			s0.4-2.2,1.1-2.9s1.6-1.1,2.7-1.1s2,0.4,2.7,1.1c0.7,0.8,1.1,1.7,1.1,2.9s-0.4,2.1-1.1,2.9C289.2-165.7,288.3-165.3,287.2-165.3
			 M287.2-162c1.3,0,2.5-0.3,3.7-1c1.1-0.7,2-1.5,2.7-2.6c0.6-1.1,1-2.3,1-3.6s-0.3-2.5-1-3.6c-0.6-1.1-1.5-2-2.6-2.7s-2.3-1-3.7-1
			c-2,0-3.7,0.7-5.1,2.1c-1.4,1.4-2.1,3.1-2.1,5.1c0,2.2,0.8,3.9,2.4,5.4C283.8-162.7,285.4-162,287.2-162"/>
	</g>
	<g id="g3638" transform="matrix(2.8061356,0,0,-2.7172617,-671.34321,-134.8005)">
		<path id="path3640" inkscape:connector-curvature="0" class="st1" d="M284.9-166h3v-1.8c0.3,0.7,0.7,1.2,1.3,1.6
			c0.5,0.4,1.1,0.5,1.7,0.5c0.4,0,0.9-0.1,1.4-0.4l-1.1-3c-0.4,0.2-0.7,0.3-1,0.3c-0.5,0-1-0.3-1.3-1c-0.4-0.7-0.6-2-0.6-3.9v-0.7
			v-5.4h-3.4V-166L284.9-166z"/>
	</g>
	<g id="g3642" transform="matrix(2.8061356,0,0,-2.7172617,-616.22341,-125.03)">
		<path id="path3644" inkscape:connector-curvature="0" class="st1" d="M281-165.3c-1.1,0-2-0.4-2.7-1.1c-0.7-0.7-1.1-1.6-1.1-2.8
			c0-1.1,0.4-2.1,1.1-2.8s1.6-1.1,2.7-1.1s2,0.4,2.7,1.1c0.7,0.7,1,1.7,1,2.8s-0.4,2.1-1.1,2.8C283-165.7,282.1-165.3,281-165.3
			 M284.6-162.4h3.4v-11.8c0-2.3-0.5-4-1.4-5.1c-1.3-1.5-3.2-2.2-5.7-2.2c-1.4,0-2.5,0.2-3.4,0.5s-1.7,0.8-2.3,1.5s-1.1,1.5-1.4,2.4
			h3.8c0.3-0.4,0.8-0.7,1.3-0.9s1.2-0.3,1.9-0.3c0.9,0,1.7,0.1,2.2,0.4c0.6,0.3,1,0.7,1.2,1.1c0.2,0.5,0.3,1.2,0.3,2.4
			c-0.6-0.6-1.2-1-1.9-1.3c-0.7-0.3-1.4-0.4-2.3-0.4c-1.9,0-3.4,0.7-4.7,2c-1.3,1.3-1.9,3-1.9,5.1c0,2.2,0.7,3.9,2,5.3
			c1.2,1.2,2.7,1.8,4.4,1.8c0.8,0,1.5-0.1,2.2-0.4c0.7-0.3,1.4-0.8,2.1-1.4C284.6-164,284.6-162.4,284.6-162.4z"/>
	</g>
	<path id="path3646" inkscape:connector-curvature="0" class="st1" d="M200.6,316.3h9.7v37.5h-9.7V316.3z M205.5,300.9
		c1.7,0,3.2,0.6,4.4,1.8c1.2,1.2,1.8,2.6,1.8,4.3s-0.6,3.1-1.8,4.3c-1.2,1.2-2.6,1.8-4.3,1.8s-3.2-0.6-4.4-1.8
		c-1.2-1.2-1.8-2.7-1.8-4.4s0.6-3.1,1.8-4.2C202.3,301.5,203.8,300.9,205.5,300.9"/>
	<g id="g3648" transform="matrix(2.8061356,0,0,-2.7172617,-534.52501,-125.1602)">
		<path id="path3650" inkscape:connector-curvature="0" class="st1" d="M275.2-165.3c-1.1,0-2-0.4-2.7-1.1c-0.7-0.8-1.1-1.7-1.1-2.9
			s0.4-2.2,1.1-2.9c0.7-0.8,1.6-1.2,2.7-1.2s2,0.4,2.7,1.1c0.7,0.8,1.1,1.7,1.1,3c0,1.2-0.4,2.2-1.1,2.9S276.3-165.3,275.2-165.3
			 M278.8-162.5h3.5v-13.8h-3.5v1.5c-0.7-0.6-1.4-1.1-2-1.4c-0.7-0.3-1.4-0.4-2.2-0.4c-1.8,0-3.3,0.7-4.6,2.1
			c-1.3,1.4-1.9,3.1-1.9,5.2c0,2.1,0.6,3.9,1.9,5.2c1.3,1.4,2.8,2,4.6,2c0.8,0,1.6-0.2,2.3-0.5c0.7-0.3,1.4-0.8,2-1.4
			C278.8-164,278.8-162.5,278.8-162.5z"/>
	</g>
	<g id="g3652" transform="matrix(2.8061356,0,0,-2.7172617,-477.00741,-151.2859)">
		<path id="path3654" inkscape:connector-curvature="0" class="st1" d="M271.1-167.2h10.3v-3.5H278v-15.2h-3.6v15.1h-3.3V-167.2z"/>
	</g>
	<g id="g3656" transform="matrix(2.8061356,0,0,-2.7172617,-397.35581,-117.2405)">
		<path id="path3658" inkscape:connector-curvature="0" class="st1" d="M265.4-164.7c-0.2,0.8-0.7,1.4-1.4,1.9
			c-0.7,0.5-1.5,0.7-2.3,0.7c-1,0-1.8-0.3-2.5-0.8c-0.5-0.3-0.9-0.9-1.3-1.8L265.4-164.7L265.4-164.7z M268.8-167.5h-11.1
			c0.2-1,0.6-1.8,1.3-2.3c0.7-0.6,1.6-0.9,2.7-0.9c1.3,0,2.4,0.5,3.3,1.4l2.9-1.4c-0.7-1-1.6-1.8-2.6-2.3s-2.2-0.7-3.6-0.7
			c-2.2,0-3.9,0.7-5.3,2c-1.4,1.4-2,3.1-2,5.1c0,2.1,0.7,3.9,2,5.2c1.4,1.4,3.1,2.1,5.1,2.1c2.2,0,3.9-0.7,5.3-2.1
			c1.4-1.4,2-3.2,2-5.5L268.8-167.5L268.8-167.5z"/>
	</g>
	<g id="g3660" transform="matrix(2.8061356,0,0,-2.7172617,-328.05741,-125.3314)">
		<path id="path3662" inkscape:connector-curvature="0" class="st1" d="M260.4-165.3l-2.9-1.6c-0.5,0.6-1.1,1-1.6,1.2
			s-1.1,0.3-1.9,0.3c-1.3,0-2.3-0.4-3.1-1.2s-1.2-1.8-1.2-3s0.4-2.1,1.2-2.9c0.8-0.7,1.8-1.1,3-1.1c1.5,0,2.8,0.5,3.6,1.6l2.7-1.9
			c-1.5-1.9-3.6-2.9-6.3-2.9c-2.4,0-4.3,0.7-5.7,2.2c-1.4,1.4-2.1,3.1-2.1,5c0,1.3,0.3,2.6,1,3.7c0.7,1.1,1.6,2,2.8,2.6s2.5,1,4,1
			c1.4,0,2.6-0.3,3.7-0.8C258.9-163.6,259.8-164.3,260.4-165.3"/>
	</g>
	<g id="g3664" transform="matrix(2.8061356,0,0,-2.7172617,-317.07961,-152.8782)">
		<path id="path3666" inkscape:connector-curvature="0" class="st1" d="M259.7-167.4h3.4v-6.7c0.7,0.6,1.4,1,2,1.3
			c0.7,0.3,1.4,0.4,2.1,0.4c1.4,0,2.5-0.5,3.5-1.4c0.8-0.8,1.2-2,1.2-3.6v-9.1h-3.4v6c0,1.6-0.1,2.7-0.2,3.2c-0.2,0.6-0.4,1-0.8,1.3
			s-0.8,0.4-1.4,0.4c-0.7,0-1.3-0.2-1.8-0.7s-0.9-1.1-1-1.9c-0.1-0.4-0.2-1.4-0.2-2.8v-5.5h-3.4L259.7-167.4L259.7-167.4z"/>
	</g>
</g>
<g id="g11777" transform="matrix(0.68641017,0,0,0.68641017,-65.56539,-321.03738)">
	<g id="g11779">
		<path id="path11781" inkscape:connector-curvature="0" class="st2" d="M1244,1096.5c32.2,59.1,94.6,84.9,151.7,74.2
			c61-11.4,106-57.2,116.2-117c10.3-60.9-19.9-125.4-81.8-154.2c9.5-10.1,19.3-19.9,28.4-30.3c4.9-5.6,11.1-9,17-13.1
			c15.8-11,31.7-21.8,47.4-32.7c2.9-2,4.7-2.2,7.8,0.2c16.2,13,31,27.4,44.2,43.4c1.8,2.2,2,3.4,0.2,5.8
			c-12.4,16.7-24.6,33.7-36.9,50.4c-1.9,2.6-2,4.4-0.2,7.2c8.5,13.4,15.2,27.8,19.8,43c0.9,2.8,2,4.2,5.2,4.7
			c21,3.6,42.1,7.5,63,11.4c2.6,0.5,3.8,1.4,4.2,4.3c1.9,15.8,3.9,31.5,3.3,47.4c-0.2,5.1-0.6,10.2-0.7,15.3c-0.1,2-0.7,2.6-2.7,3
			c-20.4,3.1-40.8,6.4-61.2,9.6c-3.7,0.6-6.1,1.3-7,5.8c-3.1,17.1-9.3,33.3-17.5,48.6c-1.4,2.6-1.4,4.4,0.4,7
			c12.4,17.6,24.6,35.4,36.9,53.1c1.5,2.2,1.8,3.5,0.1,5.9c-12.3,16-26,30.6-41.3,43.9c-2.2,1.9-3.5,1.9-5.8,0.2
			c-16.8-12.3-33.7-24.5-50.5-36.9c-2.2-1.6-3.7-1.9-6.1-0.3c-16.3,10.9-34,19-53,24.1c-2.5,0.6-3.4,2.1-3.8,4.4
			c-3.8,21-7.8,42-11.5,63c-0.6,3.7-2,4.9-5.8,5.2c-19.2,1.7-38.4,2.2-57.6,0.9c-2.7-0.2-3.9-0.6-4.4-3.7c-3.2-21-6.7-41.9-10-62.9
			c-0.3-2.2-0.8-3.1-3.2-3.7c-19.7-4.3-38.5-11.3-55.7-21.8c-2.8-1.7-4.7-1.5-7.4,0.2c-17.3,12.1-34.8,23.9-52.1,36
			c-2.2,1.6-3.7,1.7-5.9-0.2c-15.4-12.6-29.4-26.5-42.2-41.8c-1.3-1.6-2-2.6-0.6-4.8c23.1-33.5,48.4-65.3,77.6-93.8
			C1243,1097.1,1243.4,1097,1244,1096.5L1244,1096.5z"/>
	</g>
</g>
<g id="g11881" transform="matrix(0.68641017,0,0,0.68641017,-65.56539,-321.03738)">
	<path id="path11883" inkscape:connector-curvature="0" class="st2" d="M1229.9,1079.2l2.2,5.7l-37.8,14.8l-2.2-5.7L1229.9,1079.2z"
		/>
	<path id="path11885" inkscape:connector-curvature="0" class="st2" d="M1186.7,1077.1l24.6-14.4l-26.5,6.6l-1.4-5.9l39.4-9.8
		l1.6,6.4l-23.2,14.4l25.3-6.2l1.4,5.9l-39.5,9.7L1186.7,1077.1L1186.7,1077.1z"/>
	<path id="path11887" inkscape:connector-curvature="0" class="st2" d="M1221.5,1041.6l-40.1,9.6l-0.4-6.4l31.3-7l-31.8-3.3
		l-0.4-6.4l41,5L1221.5,1041.6z"/>
	<path id="path11889" inkscape:connector-curvature="0" class="st2" d="M1221,1021l-40.4-4.5l1.9-17.3l6.1,0.6l-1.2,11.2l11,1.2
		l0.9-8.2l6.1,0.6l-0.9,8.2l11,1.2l1.2-11.2l6.1,0.6L1221,1021L1221,1021z"/>
	<path id="path11891" inkscape:connector-curvature="0" class="st2" d="M1186.2,982.2l28.5-0.6l-26.3-7.3l1.6-5.9l39.1,10.8
		l-1.8,6.3l-27.3,1.2l25,6.9l-1.6,5.9l-39.1-10.8L1186.2,982.2L1186.2,982.2z"/>
	<path id="path11893" inkscape:connector-curvature="0" class="st2" d="M1202.4,954.4l-2.8,5.9l-5.6-2.6l8.2-17.3l5.6,2.6l-2.7,5.8
		l31.2,14.6l-2.6,5.5L1202.4,954.4z"/>
	<path id="path11895" inkscape:connector-curvature="0" class="st2" d="M1245,948.2l-3.3,5.2l-34.4-21.5l3.3-5.2L1245,948.2z"/>
	<path id="path11897" inkscape:connector-curvature="0" class="st2" d="M1222.1,909.9c1.7-2.1,3.9-3.3,6.6-3.5
		c2.6-0.2,5,0.5,7.1,2.2l17.2,14c2.1,1.7,3.3,3.9,3.5,6.6c0.2,2.6-0.5,5-2.2,7.1s-3.9,3.3-6.6,3.5c-2.6,0.2-5-0.5-7.1-2.2l-17.2-14
		c-2.1-1.7-3.3-3.9-3.5-6.6C1219.7,914.4,1220.4,912,1222.1,909.9z M1231.6,913.5c-0.7-0.6-1.6-0.9-2.6-0.8c-1,0.1-1.8,0.6-2.3,1.3
		c-0.6,0.7-0.9,1.6-0.8,2.6s0.5,1.8,1.3,2.4l17.2,14c0.7,0.6,1.6,0.9,2.6,0.8c1-0.1,1.8-0.6,2.4-1.3s0.9-1.6,0.8-2.6
		s-0.6-1.8-1.3-2.3L1231.6,913.5z"/>
	<path id="path11899" inkscape:connector-curvature="0" class="st2" d="M1242.2,889.5l24,15.3l-17.9-20.6l4.6-4l26.6,30.6l-5,4.3
		l-23.4-14.1l17,19.6l-4.6,4l-26.6-30.7L1242.2,889.5z"/>
	<path id="path11901" inkscape:connector-curvature="0" class="st2" d="M1309.7,882.4c1.3,2.6,1.6,5,1.1,7.5
		c-0.3,1.7-1.2,3.1-2.6,4.4c-0.7,0.7-1.7,1.3-2.9,1.8c-2.2,1-4.2,1.4-6.2,1c-1.6-0.3-3.1-1-4.6-2.2c-1.4-1.2-2.6-2.7-3.7-4.6
		l5.1-2.9c1.3,2,2.6,3.3,3.9,3.8c1,0.4,1.9,0.4,2.8-0.1c1.2-0.6,1.8-1.7,2.1-3.2c0.1-0.7-0.1-1.6-0.6-2.7c-0.7-1.5-2.2-2.7-4.2-3.5
		c-1.6-0.5-4-1.3-7.1-2.3c-2.6-0.9-4.7-1.8-6.2-3c-1.6-1.2-2.8-2.7-3.7-4.6c-1.6-3.4-1.7-6.4-0.2-9.2c0.9-1.7,2.4-3,4.4-4
		s3.8-1.3,5.7-1.1c1.4,0.2,2.7,0.7,4,1.6c1.3,0.9,2.3,2.2,3.2,3.7l-4.8,3.5c-0.9-1.4-1.8-2.4-3-2.9c-0.8-0.4-1.7-0.3-2.6,0.2
		c-1,0.5-1.6,1.3-1.7,2.5c-0.1,1,0.2,1.9,0.6,3c0.8,1.7,2.3,3,4.6,4.1c0.9,0.4,2.1,0.8,3.6,1.2c1.8,0.5,3,0.8,3.6,1
		c2,0.7,3.7,1.6,5,2.6c0.6,0.5,1.2,0.9,1.7,1.4C1308.3,880.4,1309.2,881.5,1309.7,882.4L1309.7,882.4z"/>
	<path id="path11903" inkscape:connector-curvature="0" class="st2" d="M1314.5,855.3l-6.2,1.8l-1.7-5.9l18.3-5.3l1.7,5.9l-6.2,1.8
		l9.6,33l-5.8,1.7L1314.5,855.3L1314.5,855.3z"/>
	<path id="path11905" inkscape:connector-curvature="0" class="st2" d="M1350.4,883.2c-2.7,0.3-5-0.3-7.1-2s-3.3-3.8-3.6-6.5
		l-3.7-31.2l5.9-0.7l3.7,31.1c0.1,1,0.6,1.8,1.4,2.3s1.6,0.8,2.6,0.7s1.8-0.6,2.3-1.3c0.6-0.7,0.8-1.6,0.7-2.6l-3.7-31l6.3-0.7
		l3.7,31.2c0.3,2.7-0.3,5.1-2,7.1C1355.3,881.8,1353,882.9,1350.4,883.2L1350.4,883.2z"/>
	<path id="path11907" inkscape:connector-curvature="0" class="st2" d="M1385,872.7c-0.2,2.6-1.2,4.9-3.1,6.7c-2,1.8-4.2,2.6-7,2.6
		l-9.6-0.5l1.9-40.6l9.6,0.5c2.6,0.2,4.9,1.2,6.6,3.2c1.8,2,2.6,4.3,2.5,7L1385,872.7L1385,872.7z M1371.7,875.7l3.7,0.2
		c1,0.1,1.8-0.2,2.5-1c0.7-0.6,1-1.4,1.1-2.4l1-21.2c0.1-1-0.2-1.8-0.9-2.6c-0.6-0.7-1.4-1.1-2.4-1.1l-3.7-0.2L1371.7,875.7
		L1371.7,875.7z"/>
	<path id="path11909" inkscape:connector-curvature="0" class="st2" d="M1395.9,884.4l-6-1l6.9-40l6,1L1395.9,884.4z"/>
	<path id="path11911" inkscape:connector-curvature="0" class="st2" d="M1422.6,848.8c2.6,0.8,4.5,2.4,5.8,4.7
		c1.3,2.4,1.5,4.8,0.7,7.4l-6.5,21.2c-0.8,2.6-2.4,4.5-4.7,5.8c-2.4,1.3-4.8,1.5-7.4,0.7s-4.5-2.4-5.8-4.7c-1.3-2.4-1.4-4.8-0.7-7.4
		l6.5-21.2c0.8-2.6,2.4-4.5,4.7-5.8C1417.7,848.3,1420.1,848,1422.6,848.8z M1423,858.9c0.3-1,0.2-1.8-0.2-2.6
		c-0.5-0.9-1.1-1.4-2.1-1.7s-1.8-0.2-2.7,0.2c-0.9,0.5-1.4,1.1-1.7,2.1l-6.5,21.3c-0.3,1-0.2,1.8,0.2,2.6c0.5,0.9,1.1,1.4,2.1,1.7
		s1.8,0.2,2.6-0.2c0.9-0.5,1.4-1.1,1.7-2.1L1423,858.9z"/>
</g>
<path id="path11785" inkscape:connector-curvature="0" class="st3" d="M922.8,417.8c-10,14.3-26.1,24.1-44.6,25.3"/>
<path id="path11787" inkscape:connector-curvature="0" class="st3" d="M877.5,324.5c19.2,1.1,36,11.4,46,26.5"/>
<path id="path11789" inkscape:connector-curvature="0" class="st3" d="M820.4,409.6c-3.7-7.8-5.8-16.5-5.8-25.8c0-9,2-17.5,5.5-25.2
	"/>
<polygon id="polygon11791" class="st4" points="834.9,384.4 815.6,351 834.9,317.5 873.6,317.5 892.8,351 873.6,384.4 "/>
<polygon id="polygon11793" class="st4" points="893.8,417.8 874.6,384.4 893.8,351 932.5,351 951.8,384.4 932.5,417.8 "/>
<polygon id="polygon11795" class="st4" points="834.9,451.3 815.6,417.8 834.9,384.4 873.6,384.4 892.8,417.8 873.6,451.3 "/>
<polygon id="polygon11797" class="st1" points="838.5,445.8 822.4,417.8 838.5,389.9 870.8,389.9 887,417.8 870.8,445.8 "/>
<g id="g11799" transform="matrix(0.68641017,0,0,0.68641017,-65.56539,-321.03738)">
	<g id="g11801">
		<path id="path11803" inkscape:connector-curvature="0" class="st0" d="M1357.4,1060c0.4,0.6,0.9,1.3,1.3,1.9
			c3.1,5.3,2.8,11.8-1,16.6c-3.9,5-9.1,6.8-15.4,5.5c-0.3-0.1-0.5,0-0.7,0.2c-1.1,1.1-2.2,2.2-3.4,3.4c-1.1,1.1-3,1.1-4.1,0
			c-2.2-2.2-4.4-4.3-6.6-6.6c-1.1-1.1-1-3,0-4.1c1.1-1.1,2.2-2.2,3.4-3.4c0.2-0.2,0.2-0.4,0.2-0.6c-1-4.2-0.3-8.3,2.2-11.9
			c2.8-4.1,6.8-6.3,11.8-6.6c3.5-0.2,6.7,0.9,9.6,3c0.2,0.2,0.3,0.2,0.6,0.4C1356.1,1058.6,1356.7,1059.3,1357.4,1060L1357.4,1060z
			 M1330,1079.1c2.2,2.2,4.2,4.2,6.3,6.3c1.2-1.2,2.4-2.4,3.6-3.6c0.4-0.4,0.7-1,1.2-1.1s1,0.2,1.6,0.3c5.1,1.4,10.2-0.6,13.1-5
			c3.5-5.4,2.2-12.6-3.2-16.3c-5.2-3.5-11.8-2.6-15.9,2.2c-2,2.3-2.9,5-2.7,8c0.1,1.4,0.5,2.6,0.7,4c0.1,0.3,0,0.5-0.2,0.7
			c-0.5,0.4-0.9,0.9-1.3,1.3C1332.1,1076.9,1331,1077.9,1330,1079.1L1330,1079.1z"/>
		<path id="path11805" inkscape:connector-curvature="0" class="st0" d="M1321.4,1087.5c-0.5-0.6-0.6-1.3-0.2-1.8
			c0.3-0.6,1-0.9,1.6-0.7c0.3,0.1,0.6,0.2,0.8,0.5c2.1,2.1,4.2,4.2,6.3,6.2c0.6,0.6,0.6,1.4,0.2,2c-0.6,0.7-1.4,0.8-2.2,0.2h-0.1
			c-1.3,1-2.5,1.1-3.7,0.4c-0.3-0.2-0.6-0.4-0.8-0.6c-0.6-0.6-1.1-1.2-1.8-1.8C1320.4,1090.9,1320.2,1088.9,1321.4,1087.5
			L1321.4,1087.5z"/>
		<path id="path11807" inkscape:connector-curvature="0" class="st0" d="M1329.9,1085.5c1,1,2.1,2.1,3.2,3.2c0.6,0.6,0.6,1.5,0,2.1
			s-1.5,0.6-2.2,0c-2.1-2.1-4.2-4.2-6.3-6.3c-0.6-0.6-0.6-1.5,0-2.2c0.6-0.6,1.5-0.6,2.2,0
			C1327.8,1083.3,1328.9,1084.3,1329.9,1085.5z"/>
	</g>
</g>
<polygon id="polygon11809" class="st1" points="838.5,378.9 822.4,351 838.5,323 870.8,323 887,351 870.8,378.9 "/>
<g id="g11811" transform="matrix(0.68641017,0,0,0.68641017,-65.56539,-321.03738)">
	<path id="path11813" inkscape:connector-curvature="0" class="st0" d="M1366.8,972.3l-3.7-3.7c-0.2-0.2-0.6-0.2-0.9,0l-0.4,0.4
		c-0.6,0-1.4-0.1-1.9-0.6c-0.7-0.7,0.1-2.2-0.6-3.1c-0.6-1-1.7-2.2-2.5-2.9s-3.7-3.6-8.7-5.7c-5-2.1-9.6-0.5-10.8,0.6
		c-0.6,0.6-1.3,1.7-0.1,1.5c1.2-0.2,5.4-0.5,7.2,0.9c1.8,1.4,3.1,3.3,3.3,5.7c0.1,2.3-0.6,3.7-3.7,6.6l-0.6-0.3
		c-0.4-0.2-0.9-0.1-1.1,0.2c0,0-0.5,0.5-5,5c-6.6,6.6-14.9,13.4-14.9,13.4c-0.2,0.2-0.2,0.6,0,0.9l5.9,5.9c0.2,0.2,0.6,0.2,0.9,0
		c0,0,6.7-8.2,13.4-14.9c4.5-4.5,5-5,5-5c0.2-0.2,0.4-0.7,0.2-1.1l-0.4-0.7c2.7-2.7,3.8-3.8,5-4.2c1.4-0.4,3.2-0.1,3.8,0.3
		c0.6,0.3,1,1.2,1.1,2l-1,1c-0.2,0.2-0.2,0.6,0,0.9l3.7,3.7c0.2,0.2,0.6,0.2,0.9,0l5.9-5.9C1367,972.9,1367,972.6,1366.8,972.3
		L1366.8,972.3z"/>
</g>
<polygon id="polygon11815" class="st1" points="897.5,412.3 881.3,384.4 897.5,356.4 929.7,356.4 945.9,384.4 929.7,412.3 "/>
<g id="g11817" transform="matrix(0.68641017,0,0,0.68641017,-65.56539,-321.03738)">
	<g id="g11819">
		<path id="path11821" inkscape:connector-curvature="0" class="st0" d="M1471.6,983.7c-0.5,0.8-22.7,23.4-23.4,24
			c-5.7,5.8-11.4,11.4-17.1,17.1c-0.8,0.8-1.4,1.5-1.4,2.9c0.1,1.8-1.4,3-3.1,3c-1.6-0.1-2.9-1.4-3-3c-0.1-1.7,1.2-3.2,3-3.1
			c1.4,0.1,2.1-0.5,2.9-1.4c5.7-5.8,11.4-11.4,17.1-17.1c0.6-0.6,24.2-22.6,25-23.1C1471.9,983.2,1471.4,983.5,1471.6,983.7
			L1471.6,983.7z"/>
		<path id="path11823" inkscape:connector-curvature="0" class="st0" d="M1409,1009c0.6,0.4,1.4,0.8,1.9,1.3
			c3.8,3.8,7.6,7.5,11.4,11.3c0.2,0.2,0.3,0.2,0.4,0.4c0.2,0.6,0.3,1.1,0.5,1.8c-0.6-0.1-1.4,0.1-1.8-0.3c-2.1-1.9-4.1-4-6.2-6.1
			c-1.9-1.9-3.9-3.8-5.8-5.8c-0.5-0.5-0.8-1.2-1.3-1.8C1408.5,1009.5,1408.7,1009.3,1409,1009L1409,1009z"/>
		<path id="path11825" inkscape:connector-curvature="0" class="st0" d="M1444.5,1046.2c-0.3-0.2-0.8-0.3-1-0.6
			c-4.2-4.2-8.6-8.5-12.7-12.7c-0.3-0.3-0.2-1-0.3-1.6c0.6,0,1.3-0.2,1.5,0.1c4.4,4.3,8.7,8.6,13,13c0.2,0.2,0.2,0.6,0.4,0.9
			C1445,1045.6,1444.8,1045.9,1444.5,1046.2z"/>
		<path id="path11827" inkscape:connector-curvature="0" class="st0" d="M1448,1022.9c-0.6,0.2-1,0.4-1.4,0.5
			c-4.2,1.1-8.3,2.3-12.6,3.3c-0.6,0.2-1.4-0.3-2.2-0.5c0.5-0.5,1-1.3,1.5-1.4c4.3-1.2,8.6-2.4,13-3.4c0.6-0.2,1.2,0.1,1.8,0.4
			C1448.2,1021.7,1448.1,1022.4,1448,1022.9L1448,1022.9z"/>
		<path id="path11829" inkscape:connector-curvature="0" class="st0" d="M1405.8,1033.9c-0.8-1.4,0-1.8,1-2c3.6-1,7.2-1.9,10.8-2.9
			c0.9-0.2,1.8-0.6,2.7-0.6c0.5-0.1,1,0.4,1.4,0.6c-0.3,0.5-0.5,1.2-0.9,1.3c-4.6,1.4-9.4,2.6-14.1,3.8
			C1406.5,1034,1406.1,1033.9,1405.8,1033.9L1405.8,1033.9z"/>
		<path id="path11831" inkscape:connector-curvature="0" class="st0" d="M1422.1,1006.4c0.2,0.6,0.4,1.2,0.6,1.7
			c1.1,4.1,2.2,8.1,3.2,12.2c0.2,0.6-0.2,1.5-0.4,2.2c-0.6-0.6-1.4-1-1.5-1.7c-1.2-4.2-2.3-8.5-3.4-12.7c-0.2-0.6,0.2-1.2,0.4-1.8
			C1421,1006.2,1421.7,1006.3,1422.1,1006.4L1422.1,1006.4z"/>
		<path id="path11833" inkscape:connector-curvature="0" class="st0" d="M1432.5,1049.1c-0.5-0.6-1.2-1-1.4-1.7
			c-1.1-3.7-2.1-7.4-3-11.2c-0.2-0.7-0.5-1.4-0.6-2.2c0-0.5,0.4-1,0.6-1.5c0.5,0.3,1.1,0.5,1.4,0.9c0.5,1,0.6,2.2,1,3.3
			c0.9,3.4,1.8,6.7,2.6,10.1c0.2,0.6,0.1,1.2,0.2,1.8C1433,1048.8,1432.7,1049,1432.5,1049.1L1432.5,1049.1z"/>
		<path id="path11835" inkscape:connector-curvature="0" class="st0" d="M1419.9,1036c-0.9,0.9-1.8,1.9-2.7,2.6
			c-0.5,0.3-1.3,0.2-1.9,0.4c0.1-0.6-0.1-1.4,0.3-1.8c1.8-2,3.8-3.9,5.8-5.8c0.3-0.3,1.2-0.2,1.8-0.2c-0.1,0.6,0,1.4-0.3,1.8
			C1421.9,1034.1,1420.9,1035.1,1419.9,1036L1419.9,1036z"/>
		<path id="path11837" inkscape:connector-curvature="0" class="st0" d="M1429.4,1022.3c-0.6,0.1-1,0.2-1.3,0.1
			c-0.3-0.2-0.7-0.7-0.6-1c0.6-2.8,1.4-5.5,2.2-8.2c0.1-0.2,0.7-0.6,1.1-0.5c0.2,0,0.7,0.6,0.7,0.8
			C1430.8,1016.4,1430.1,1019.4,1429.4,1022.3L1429.4,1022.3z"/>
		<path id="path11839" inkscape:connector-curvature="0" class="st0" d="M1426.5,1032.9c-0.2,0.5-0.2,1-0.4,1.5
			c-0.6,2.3-1.2,4.6-1.9,6.9c-0.2,0.5-1,0.8-1.4,1.2c-0.2-0.6-0.6-1.2-0.6-1.7c0.6-2.4,1.1-4.8,1.9-7.1c0.2-0.6,1-0.9,1.5-1.3
			C1425.9,1032.6,1426.2,1032.7,1426.5,1032.9z"/>
		<path id="path11841" inkscape:connector-curvature="0" class="st0" d="M1421.4,1026.9c-0.6,0-1.1,0-1.7-0.2
			c-2.2-0.6-4.4-1.1-6.6-1.8c-0.6-0.2-1-0.9-1.4-1.4c0.6-0.2,1.3-0.8,1.8-0.6c2.3,0.5,4.6,1.1,7,1.8c0.6,0.2,1,1,1.4,1.4
			C1421.8,1026.5,1421.6,1026.7,1421.4,1026.9L1421.4,1026.9z"/>
		<path id="path11843" inkscape:connector-curvature="0" class="st0" d="M1432.2,1030.2c-0.2-0.6-0.4-1-0.3-1.2
			c0.3-0.3,0.9-0.8,1.2-0.7c2.6,0.6,5.3,1.4,7.9,2.1c0.3,0.1,0.6,0.8,0.6,1.3c0,0.2-0.6,0.7-0.8,0.6
			C1438,1031.6,1435.1,1030.9,1432.2,1030.2z"/>
	</g>
</g>
<g id="g11845" transform="matrix(0.68641017,0,0,0.68641017,-65.56539,-321.03738)">
	<path id="path11847" inkscape:connector-curvature="0" class="st5" d="M1257.9,1167c-1.8,1.8-3.9,2.7-6.6,2.6c-2.6-0.1-5-1-7-3
		l-7.3-6.9l26.2-27.8l7.3,6.9c2,1.9,3.1,4.2,3.4,6.9c0.2,2.6-0.6,4.9-2.3,6.7L1257.9,1167z M1245.6,1160.1l2.8,2.6
		c0.7,0.7,1.6,1,2.6,1s1.8-0.3,2.4-1l13.8-14.6c0.6-0.6,0.9-1.4,0.8-2.5c-0.1-1-0.5-1.8-1.2-2.5l-2.8-2.6L1245.6,1160.1z"/>
	<path id="path11849" inkscape:connector-curvature="0" class="st5" d="M1264.6,1183.7l20.6-32.2l15.4,9.8l-3.1,4.9l-10-6.3
		l-5.6,8.8l7.3,4.6l-3.1,4.9l-7.3-4.6l-5.6,8.8l10,6.3l-3.1,4.9L1264.6,1183.7L1264.6,1183.7z"/>
	<path id="path11851" inkscape:connector-curvature="0" class="st5" d="M1316.6,1199.5c-1,2.5-2.5,4.3-4.6,5.5
		c-1.4,0.8-3.1,1.1-5.1,0.9c-1-0.1-2.2-0.4-3.4-1c-2.3-1-4.1-2.2-5.2-3.8c-1-1.4-1.5-3-1.7-4.7s0.1-3.6,0.7-5.5l5.8,1.9
		c-0.6,2.2-0.6,3.9,0,5.2c0.4,1,1.1,1.7,2.1,2c1.3,0.5,2.6,0.3,3.8-0.5c0.6-0.4,1.1-1.1,1.5-2.1c0.6-1.4,0.4-3.2-0.5-5.3
		c-0.8-1.4-1.9-3.7-3.5-6.6c-1.3-2.5-2.1-4.6-2.3-6.3c-0.2-1.9-0.1-3.8,0.6-5.5c1.3-3.2,3.4-5.2,6.6-5.9c1.9-0.4,3.9-0.2,6.2,0.7
		c2.1,0.9,3.8,2,5,3.4c0.9,1.1,1.5,2.4,1.8,3.9c0.2,1.4,0.2,3-0.3,4.6l-6.1-1.4c0.4-1.5,0.4-2.8,0-3.9c-0.3-0.8-1-1.4-2-1.8
		c-1.1-0.4-2.1-0.3-3,0.3c-0.7,0.5-1.3,1.3-1.8,2.3c-0.6,1.6-0.6,3.6,0.3,5.9c0.3,0.9,0.9,2,1.8,3.4c1,1.6,1.6,2.7,1.8,3.3
		c1,1.9,1.5,3.7,1.8,5.3c0.2,0.7,0.2,1.4,0.2,2C1317.2,1197.3,1317,1198.5,1316.6,1199.5z"/>
	<path id="path11853" inkscape:connector-curvature="0" class="st5" d="M1334.2,1213.8l-6.2-1.4l8.4-37.3l6.2,1.4L1334.2,1213.8z"/>
	<path id="path11855" inkscape:connector-curvature="0" class="st5" d="M1359.9,1217.7c-2.8-0.2-5.1-1.2-7-3.1
		c-1.8-1.9-2.7-4.2-2.6-6.6l1.4-20.8c0.2-2.6,1.3-4.6,3.4-6.2c2.1-1.7,4.6-2.4,7.4-2.2c2.8,0.2,5.1,1.2,7,3.1
		c1.8,1.9,2.7,4.2,2.5,6.6l-0.3,4.3l-6.6-0.4l0.3-4.5c0.1-0.9-0.2-1.7-1-2.4c-0.6-0.7-1.5-1-2.6-1.1c-1-0.1-1.9,0.2-2.6,0.8
		c-0.7,0.6-1.1,1.4-1.2,2.2l-1.4,20.9c-0.1,0.9,0.2,1.7,0.9,2.4c0.6,0.7,1.5,1,2.6,1.1c1,0.1,1.9-0.2,2.6-0.8
		c0.7-0.6,1.2-1.4,1.2-2.2l0.5-7.5l-3.5-0.2l0.4-5.8l10.2,0.6l-0.9,13.4c-0.2,2.6-1.3,4.6-3.4,6.2
		C1365.1,1217.1,1362.6,1217.9,1359.9,1217.7L1359.9,1217.7z"/>
	<path id="path11857" inkscape:connector-curvature="0" class="st5" d="M1388.6,1178.6l11.8,24.3l-3.4-25.4l6.3-0.9l5.1,37.9l-6.8,1
		l-12-23.1l3.3,24.2l-6.3,0.9l-5.1-37.9L1388.6,1178.6z"/>
	<path id="path11859" inkscape:connector-curvature="0" class="st5" d="M1427,1186.7l17.5-7.4l2.2,5.4l-17.5,7.4L1427,1186.7z"/>
	<path id="path11861" inkscape:connector-curvature="0" class="st5" d="M1477.1,1185.8l-23.3-30.3l7.6-5.8c2-1.5,4.2-2.5,6.6-2.7
		c2-0.2,3.9,0.2,5.8,1.5c1,0.6,2,1.6,3,2.9c1.5,2,2.2,4.2,1.9,6.2c-0.1,0.9-0.4,1.8-0.9,2.6c1.4-0.5,3-0.5,4.6,0.1
		c1.1,0.4,2.2,1,3.4,2.1c0.6,0.6,1.2,1.2,1.8,2c1.4,1.9,2.3,3.8,2.6,5.8c0.2,1.5-0.1,3-0.7,4.6c-0.7,1.7-1.8,3-3,4L1477.1,1185.8
		L1477.1,1185.8z M1468.8,1163.6l2.2-1.6c1.6-1.2,2.1-2.7,1.6-4.5c-0.2-0.6-0.6-1.4-1.2-2.2c-1-1.3-2-1.9-3.2-2.1
		c-1.1-0.1-2.2,0.2-3.1,1l-2.2,1.6L1468.8,1163.6L1468.8,1163.6z M1479.1,1177.1l2.2-1.6c1.8-1.4,2.3-3,1.8-5.1
		c-0.2-0.7-0.6-1.4-1.1-2.2c-1.3-1.7-2.6-2.6-3.9-2.9c-1.2-0.2-2.4,0.2-3.7,1.1l-2.2,1.6L1479.1,1177.1z"/>
	<path id="path11863" inkscape:connector-curvature="0" class="st5" d="M1513.2,1153.9c-1.8,2.2-4.1,3.4-6.7,3.7
		c-2.6,0.3-4.9-0.3-6.8-2l-22.3-19.4l4.1-4.7l22.2,19.4c0.7,0.6,1.5,0.8,2.5,0.7c1-0.2,1.8-0.6,2.4-1.4s1-1.6,1-2.6s-0.4-1.8-1-2.3
		l-22.2-19.4l4.4-5l22.3,19.4c1.9,1.7,2.9,3.8,2.9,6.5C1515.9,1149.5,1515,1151.8,1513.2,1153.9L1513.2,1153.9z"/>
	<path id="path11865" inkscape:connector-curvature="0" class="st5" d="M1531.9,1127.5l-3.4,5.4l-32.3-20.3l3.4-5.4L1531.9,1127.5z"
		/>
	<path id="path11867" inkscape:connector-curvature="0" class="st5" d="M1546.6,1097.9l-7,16l-35-15.4l2.6-5.8l29.8,13l4.4-10.1
		L1546.6,1097.9L1546.6,1097.9z"/>
	<path id="path11869" inkscape:connector-curvature="0" class="st5" d="M1547.2,1062c2.5,0.6,4.3,2,5.6,4.3s1.6,4.8,1,7.5l-2.3,9.8
		l-37.2-8.7l2.3-9.8c0.6-2.7,2.1-4.8,4.2-6.3c2.2-1.5,4.5-1.9,7-1.4L1547.2,1062L1547.2,1062z M1547.4,1076.2l0.9-3.8
		c0.2-1,0.1-1.9-0.4-2.7c-0.5-0.8-1.2-1.4-2-1.5l-19.5-4.6c-0.9-0.2-1.8-0.1-2.6,0.5c-0.8,0.6-1.3,1.3-1.5,2.2l-0.9,3.8
		L1547.4,1076.2z"/>
	<path id="path11871" inkscape:connector-curvature="0" class="st5" d="M1536.9,1037l-0.4-19l5.8-0.2l0.4,19L1536.9,1037z"/>
	<path id="path11873" inkscape:connector-curvature="0" class="st5" d="M1514.9,990.7c-0.9-3-0.6-5.6,0.6-7.9c1.1-2.1,3-3.5,5.5-4.2
		l5.4-1.5c2.4-0.7,4.8-0.3,7,1c2.2,1.4,3.8,3.4,4.5,6.1l1,3.5l13.8-3.9l1.8,6.2l-36.8,10.4L1514.9,990.7L1514.9,990.7z
		 M1522.7,984.6c-1,0.2-1.7,0.8-2.1,1.6s-0.5,1.8-0.2,2.8l1,3.7l11.8-3.4l-1-3.7c-0.2-1-0.8-1.8-1.7-2.2c-0.8-0.5-1.7-0.6-2.6-0.4
		L1522.7,984.6L1522.7,984.6z"/>
	<path id="path11875" inkscape:connector-curvature="0" class="st5" d="M1535.3,940.3l7.8,15.6l-34.2,17l-2.9-5.8l29-14.5l-5-9.9
		C1530.1,942.8,1535.3,940.3,1535.3,940.3z"/>
	<path id="path11877" inkscape:connector-curvature="0" class="st5" d="M1515.4,926.1l7.9-4.1l4.1,5.3l-34.7,17.4l-5.4-7l26-28.9
		l4.1,5.4l-6.1,6.6L1515.4,926.1L1515.4,926.1z M1497,935.9l13.4-7.3l-2.9-3.8L1497,935.9z"/>
	<path id="path11879" inkscape:connector-curvature="0" class="st5" d="M1490.2,908.3l-8.8,22.2l-5.2-4.8l5.8-13.3l-12.8,6.9
		l-5.2-4.8l21.4-10.5l10.9-11.8l4.7,4.3C1501.1,896.5,1490.2,908.3,1490.2,908.3z"/>
</g>
</svg>
