<?xml version="1.0" encoding="utf-8"?>
<!-- Generator: Adobe Illustrator 21.0.0, SVG Export Plug-In . SVG Version: 6.00 Build 0)  -->
<svg version="1.1"
	 id="svg7143" inkscape:export-filename="C:\Users\Lauren\Documents\Invention Studio\Graphics\Logos\Logo - Wide.png" inkscape:export-xdpi="90" inkscape:export-ydpi="90" inkscape:version="0.91 r13725" sodipodi:docname="Logo - Wide.svg" xmlns:cc="http://creativecommons.org/ns#" xmlns:dc="http://purl.org/dc/elements/1.1/" xmlns:inkscape="http://www.inkscape.org/namespaces/inkscape" xmlns:rdf="http://www.w3.org/1999/02/22-rdf-syntax-ns#" xmlns:sodipodi="http://sodipodi.sourceforge.net/DTD/sodipodi-0.dtd" xmlns:svg="http://www.w3.org/2000/svg"
	 xmlns="http://www.w3.org/2000/svg" xmlns:xlink="http://www.w3.org/1999/xlink" x="0px" y="0px" viewBox="0 0 322.3 324.6"
	 style="enable-background:new 0 0 322.3 324.6;" xml:space="preserve">
<style type="text/css">
	.st0{fill:#FFFFFF;stroke:#FFFFFF;stroke-miterlimit:10;}
	.st1{fill:none;stroke:#FFFFFF;stroke-width:4.8049;stroke-miterlimit:10;}
	.st2{fill:none;stroke:#FFFFFF;stroke-width:7;stroke-miterlimit:10;}
	.st3{fill:#FFFFFF;}
</style>
<sodipodi:namedview  bordercolor="#666666" borderopacity="1.0" fit-margin-bottom="0" fit-margin-left="0" fit-margin-right="0" fit-margin-top="0" id="base" inkscape:current-layer="layer1" inkscape:cx="1114.1329" inkscape:cy="-43.106794" inkscape:document-units="px" inkscape:pageopacity="0.0" inkscape:pageshadow="2" inkscape:window-height="705" inkscape:window-maximized="1" inkscape:window-width="1366" inkscape:window-x="-8" inkscape:window-y="-8" inkscape:zoom="0.35" pagecolor="#ffffff" showgrid="false">
	</sodipodi:namedview>
<g>
	<g id="g11881" transform="matrix(0.68641017,0,0,0.68641017,-65.56539,-321.03738)">
		<path id="path11883" inkscape:connector-curvature="0" class="st0" d="M161.3,725.1l2.2,5.7l-37.8,14.8l-2.2-5.7L161.3,725.1z"/>
		<path id="path11885" inkscape:connector-curvature="0" class="st0" d="M118.1,723l24.6-14.4l-26.5,6.6l-1.4-5.9l39.4-9.8l1.6,6.4
			l-23.2,14.4l25.3-6.2l1.4,5.9l-39.5,9.7L118.1,723L118.1,723z"/>
		<path id="path11887" inkscape:connector-curvature="0" class="st0" d="M152.9,687.5l-40.1,9.6l-0.4-6.4l31.3-7l-31.8-3.3l-0.4-6.4
			l41,5L152.9,687.5z"/>
		<path id="path11889" inkscape:connector-curvature="0" class="st0" d="M152.4,666.9l-40.4-4.5l1.9-17.3l6.1,0.6l-1.2,11.2l11,1.2
			l0.9-8.2l6.1,0.6l-0.9,8.2l11,1.2l1.2-11.2l6.1,0.6L152.4,666.9L152.4,666.9z"/>
		<path id="path11891" inkscape:connector-curvature="0" class="st0" d="M117.6,628.1l28.5-0.6l-26.3-7.3l1.6-5.9l39.1,10.8
			l-1.8,6.3l-27.3,1.2l25,6.9l-1.6,5.9l-39.1-10.8L117.6,628.1L117.6,628.1z"/>
		<path id="path11893" inkscape:connector-curvature="0" class="st0" d="M133.8,600.3l-2.8,5.9l-5.6-2.6l8.2-17.3l5.6,2.6l-2.7,5.8
			l31.2,14.6l-2.6,5.5L133.8,600.3z"/>
		<path id="path11895" inkscape:connector-curvature="0" class="st0" d="M176.4,594.1l-3.3,5.2l-34.4-21.5l3.3-5.2L176.4,594.1z"/>
		<path id="path11897" inkscape:connector-curvature="0" class="st0" d="M153.5,555.8c1.7-2.1,3.9-3.3,6.6-3.5
			c2.6-0.2,5,0.5,7.1,2.2l17.2,14c2.1,1.7,3.3,3.9,3.5,6.6c0.2,2.6-0.5,5-2.2,7.1s-3.9,3.3-6.6,3.5c-2.6,0.2-5-0.5-7.1-2.2l-17.2-14
			c-2.1-1.7-3.3-3.9-3.5-6.6C151.1,560.3,151.8,557.9,153.5,555.8z M163,559.4c-0.7-0.6-1.6-0.9-2.6-0.8c-1,0.1-1.8,0.6-2.3,1.3
			c-0.6,0.7-0.9,1.6-0.8,2.6s0.5,1.8,1.3,2.4l17.2,14c0.7,0.6,1.6,0.9,2.6,0.8c1-0.1,1.8-0.6,2.4-1.3s0.9-1.6,0.8-2.6
			s-0.6-1.8-1.3-2.3L163,559.4z"/>
		<path id="path11899" inkscape:connector-curvature="0" class="st0" d="M173.6,535.4l24,15.3l-17.9-20.6l4.6-4l26.6,30.6l-5,4.3
			l-23.4-14.1l17,19.6l-4.6,4l-26.6-30.7L173.6,535.4z"/>
		<path id="path11901" inkscape:connector-curvature="0" class="st0" d="M241.1,528.3c1.3,2.6,1.6,5,1.1,7.5
			c-0.3,1.7-1.2,3.1-2.6,4.4c-0.7,0.7-1.7,1.3-2.9,1.8c-2.2,1-4.2,1.4-6.2,1c-1.6-0.3-3.1-1-4.6-2.2c-1.4-1.2-2.6-2.7-3.7-4.6
			l5.1-2.9c1.3,2,2.6,3.3,3.9,3.8c1,0.4,1.9,0.4,2.8-0.1c1.2-0.6,1.8-1.7,2.1-3.2c0.1-0.7-0.1-1.6-0.6-2.7c-0.7-1.5-2.2-2.7-4.2-3.5
			c-1.6-0.5-4-1.3-7.1-2.3c-2.6-0.9-4.7-1.8-6.2-3c-1.6-1.2-2.8-2.7-3.7-4.6c-1.6-3.4-1.7-6.4-0.2-9.2c0.9-1.7,2.4-3,4.4-4
			s3.8-1.3,5.7-1.1c1.4,0.2,2.7,0.7,4,1.6c1.3,0.9,2.3,2.2,3.2,3.7l-4.8,3.5c-0.9-1.4-1.8-2.4-3-2.9c-0.8-0.4-1.7-0.3-2.6,0.2
			c-1,0.5-1.6,1.3-1.7,2.5c-0.1,1,0.2,1.9,0.6,3c0.8,1.7,2.3,3,4.6,4.1c0.9,0.4,2.1,0.8,3.6,1.2c1.8,0.5,3,0.8,3.6,1
			c2,0.7,3.7,1.6,5,2.6c0.6,0.5,1.2,0.9,1.7,1.4C239.7,526.3,240.6,527.4,241.1,528.3L241.1,528.3z"/>
		<path id="path11903" inkscape:connector-curvature="0" class="st0" d="M245.9,501.2l-6.2,1.8l-1.7-5.9l18.3-5.3l1.7,5.9l-6.2,1.8
			l9.6,33l-5.8,1.7L245.9,501.2L245.9,501.2z"/>
		<path id="path11905" inkscape:connector-curvature="0" class="st0" d="M281.8,529.1c-2.7,0.3-5-0.3-7.1-2s-3.3-3.8-3.6-6.5
			l-3.7-31.2l5.9-0.7l3.7,31.1c0.1,1,0.6,1.8,1.4,2.3s1.6,0.8,2.6,0.7s1.8-0.6,2.3-1.3c0.6-0.7,0.8-1.6,0.7-2.6l-3.7-31l6.3-0.7
			l3.7,31.2c0.3,2.7-0.3,5.1-2,7.1C286.7,527.7,284.4,528.8,281.8,529.1L281.8,529.1z"/>
		<path id="path11907" inkscape:connector-curvature="0" class="st0" d="M316.4,518.6c-0.2,2.6-1.2,4.9-3.1,6.7
			c-2,1.8-4.2,2.6-7,2.6l-9.6-0.5l1.9-40.6l9.6,0.5c2.6,0.2,4.9,1.2,6.6,3.2c1.8,2,2.6,4.3,2.5,7L316.4,518.6L316.4,518.6z
			 M303.1,521.6l3.7,0.2c1,0.1,1.8-0.2,2.5-1c0.7-0.6,1-1.4,1.1-2.4l1-21.2c0.1-1-0.2-1.8-0.9-2.6c-0.6-0.7-1.4-1.1-2.4-1.1
			l-3.7-0.2L303.1,521.6L303.1,521.6z"/>
		<path id="path11909" inkscape:connector-curvature="0" class="st0" d="M327.3,530.3l-6-1l6.9-40l6,1L327.3,530.3z"/>
		<path id="path11911" inkscape:connector-curvature="0" class="st0" d="M354,494.7c2.6,0.8,4.5,2.4,5.8,4.7
			c1.3,2.4,1.5,4.8,0.7,7.4L354,528c-0.8,2.6-2.4,4.5-4.7,5.8c-2.4,1.3-4.8,1.5-7.4,0.7s-4.5-2.4-5.8-4.7c-1.3-2.4-1.4-4.8-0.7-7.4
			l6.5-21.2c0.8-2.6,2.4-4.5,4.7-5.8C349.1,494.2,351.5,493.9,354,494.7z M354.4,504.8c0.3-1,0.2-1.8-0.2-2.6
			c-0.5-0.9-1.1-1.4-2.1-1.7s-1.8-0.2-2.7,0.2c-0.9,0.5-1.4,1.1-1.7,2.1l-6.5,21.3c-0.3,1-0.2,1.8,0.2,2.6c0.5,0.9,1.1,1.4,2.1,1.7
			s1.8,0.2,2.6-0.2c0.9-0.5,1.4-1.1,1.7-2.1L354.4,504.8z"/>
	</g>
	<path id="path11785" inkscape:connector-curvature="0" class="st1" d="M189.3,174.7c-10,14.3-26.1,24.1-44.6,25.3"/>
	<path id="path11787" inkscape:connector-curvature="0" class="st1" d="M144,81.4c19.2,1.1,36,11.4,46,26.5"/>
	<path id="path11789" inkscape:connector-curvature="0" class="st1" d="M86.9,166.5c-3.7-7.8-5.8-16.5-5.8-25.8c0-9,2-17.5,5.5-25.2
		"/>
	<polygon id="polygon11791" class="st2" points="101.4,141.3 82.1,107.9 101.4,74.4 140.1,74.4 159.3,107.9 140.1,141.3 	"/>
	<polygon id="polygon11793" class="st2" points="160.3,174.7 141.1,141.3 160.3,107.9 199,107.9 218.3,141.3 199,174.7 	"/>
	<polygon id="polygon11795" class="st2" points="101.4,208.2 82.1,174.7 101.4,141.3 140.1,141.3 159.3,174.7 140.1,208.2 	"/>
	<g id="g11799" transform="matrix(0.68641017,0,0,0.68641017,-65.56539,-321.03738)">
		<g id="g11801">
			<path id="path11803" inkscape:connector-curvature="0" class="st3" d="M288.8,705.9c0.4,0.6,0.9,1.3,1.3,1.9
				c3.1,5.3,2.8,11.8-1,16.6c-3.9,5-9.1,6.8-15.4,5.5c-0.3-0.1-0.5,0-0.7,0.2c-1.1,1.1-2.2,2.2-3.4,3.4c-1.1,1.1-3,1.1-4.1,0
				c-2.2-2.2-4.4-4.3-6.6-6.6c-1.1-1.1-1-3,0-4.1c1.1-1.1,2.2-2.2,3.4-3.4c0.2-0.2,0.2-0.4,0.2-0.6c-1-4.2-0.3-8.3,2.2-11.9
				c2.8-4.1,6.8-6.3,11.8-6.6c3.5-0.2,6.7,0.9,9.6,3c0.2,0.2,0.3,0.2,0.6,0.4C287.5,704.5,288.1,705.2,288.8,705.9L288.8,705.9z
				 M261.4,725c2.2,2.2,4.2,4.2,6.3,6.3c1.2-1.2,2.4-2.4,3.6-3.6c0.4-0.4,0.7-1,1.2-1.1s1,0.2,1.6,0.3c5.1,1.4,10.2-0.6,13.1-5
				c3.5-5.4,2.2-12.6-3.2-16.3c-5.2-3.5-11.8-2.6-15.9,2.2c-2,2.3-2.9,5-2.7,8c0.1,1.4,0.5,2.6,0.7,4c0.1,0.3,0,0.5-0.2,0.7
				c-0.5,0.4-0.9,0.9-1.3,1.3C263.5,722.8,262.4,723.8,261.4,725L261.4,725z"/>
			<path id="path11805" inkscape:connector-curvature="0" class="st3" d="M252.8,733.4c-0.5-0.6-0.6-1.3-0.2-1.8
				c0.3-0.6,1-0.9,1.6-0.7c0.3,0.1,0.6,0.2,0.8,0.5c2.1,2.1,4.2,4.2,6.3,6.2c0.6,0.6,0.6,1.4,0.2,2c-0.6,0.7-1.4,0.8-2.2,0.2h-0.1
				c-1.3,1-2.5,1.1-3.7,0.4c-0.3-0.2-0.6-0.4-0.8-0.6c-0.6-0.6-1.1-1.2-1.8-1.8C251.8,736.8,251.6,734.8,252.8,733.4L252.8,733.4z"
				/>
			<path id="path11807" inkscape:connector-curvature="0" class="st3" d="M261.3,731.4c1,1,2.1,2.1,3.2,3.2c0.6,0.6,0.6,1.5,0,2.1
				s-1.5,0.6-2.2,0c-2.1-2.1-4.2-4.2-6.3-6.3c-0.6-0.6-0.6-1.5,0-2.2c0.6-0.6,1.5-0.6,2.2,0C259.2,729.2,260.3,730.2,261.3,731.4z"
				/>
		</g>
	</g>
	<g id="g11811" transform="matrix(0.68641017,0,0,0.68641017,-65.56539,-321.03738)">
		<path id="path11813" inkscape:connector-curvature="0" class="st3" d="M298.2,618.2l-3.7-3.7c-0.2-0.2-0.6-0.2-0.9,0l-0.4,0.4
			c-0.6,0-1.4-0.1-1.9-0.6c-0.7-0.7,0.1-2.2-0.6-3.1c-0.6-1-1.7-2.2-2.5-2.9s-3.7-3.6-8.7-5.7c-5-2.1-9.6-0.5-10.8,0.6
			c-0.6,0.6-1.3,1.7-0.1,1.5c1.2-0.2,5.4-0.5,7.2,0.9c1.8,1.4,3.1,3.3,3.3,5.7c0.1,2.3-0.6,3.7-3.7,6.6l-0.6-0.3
			c-0.4-0.2-0.9-0.1-1.1,0.2c0,0-0.5,0.5-5,5c-6.6,6.6-14.9,13.4-14.9,13.4c-0.2,0.2-0.2,0.6,0,0.9l5.9,5.9c0.2,0.2,0.6,0.2,0.9,0
			c0,0,6.7-8.2,13.4-14.9c4.5-4.5,5-5,5-5c0.2-0.2,0.4-0.7,0.2-1.1l-0.4-0.7c2.7-2.7,3.8-3.8,5-4.2c1.4-0.4,3.2-0.1,3.8,0.3
			c0.6,0.3,1,1.2,1.1,2l-1,1c-0.2,0.2-0.2,0.6,0,0.9l3.7,3.7c0.2,0.2,0.6,0.2,0.9,0l5.9-5.9C298.4,618.8,298.4,618.5,298.2,618.2
			L298.2,618.2z"/>
	</g>
	<g id="g11817" transform="matrix(0.68641017,0,0,0.68641017,-65.56539,-321.03738)">
		<g id="g11819">
			<path id="path11821" inkscape:connector-curvature="0" class="st3" d="M403,629.6c-0.5,0.8-22.7,23.4-23.4,24
				c-5.7,5.8-11.4,11.4-17.1,17.1c-0.8,0.8-1.4,1.5-1.4,2.9c0.1,1.8-1.4,3-3.1,3c-1.6-0.1-2.9-1.4-3-3c-0.1-1.7,1.2-3.2,3-3.1
				c1.4,0.1,2.1-0.5,2.9-1.4c5.7-5.8,11.4-11.4,17.1-17.1c0.6-0.6,24.2-22.6,25-23.1C403.3,629.1,402.8,629.4,403,629.6L403,629.6z"
				/>
			<path id="path11823" inkscape:connector-curvature="0" class="st3" d="M340.4,654.9c0.6,0.4,1.4,0.8,1.9,1.3
				c3.8,3.8,7.6,7.5,11.4,11.3c0.2,0.2,0.3,0.2,0.4,0.4c0.2,0.6,0.3,1.1,0.5,1.8c-0.6-0.1-1.4,0.1-1.8-0.3c-2.1-1.9-4.1-4-6.2-6.1
				c-1.9-1.9-3.9-3.8-5.8-5.8c-0.5-0.5-0.8-1.2-1.3-1.8C339.9,655.4,340.1,655.2,340.4,654.9L340.4,654.9z"/>
			<path id="path11825" inkscape:connector-curvature="0" class="st3" d="M375.9,692.1c-0.3-0.2-0.8-0.3-1-0.6
				c-4.2-4.2-8.6-8.5-12.7-12.7c-0.3-0.3-0.2-1-0.3-1.6c0.6,0,1.3-0.2,1.5,0.1c4.4,4.3,8.7,8.6,13,13c0.2,0.2,0.2,0.6,0.4,0.9
				C376.4,691.5,376.2,691.8,375.9,692.1z"/>
			<path id="path11827" inkscape:connector-curvature="0" class="st3" d="M379.4,668.8c-0.6,0.2-1,0.4-1.4,0.5
				c-4.2,1.1-8.3,2.3-12.6,3.3c-0.6,0.2-1.4-0.3-2.2-0.5c0.5-0.5,1-1.3,1.5-1.4c4.3-1.2,8.6-2.4,13-3.4c0.6-0.2,1.2,0.1,1.8,0.4
				C379.6,667.6,379.5,668.3,379.4,668.8L379.4,668.8z"/>
			<path id="path11829" inkscape:connector-curvature="0" class="st3" d="M337.2,679.8c-0.8-1.4,0-1.8,1-2c3.6-1,7.2-1.9,10.8-2.9
				c0.9-0.2,1.8-0.6,2.7-0.6c0.5-0.1,1,0.4,1.4,0.6c-0.3,0.5-0.5,1.2-0.9,1.3c-4.6,1.4-9.4,2.6-14.1,3.8
				C337.9,679.9,337.5,679.8,337.2,679.8L337.2,679.8z"/>
			<path id="path11831" inkscape:connector-curvature="0" class="st3" d="M353.5,652.3c0.2,0.6,0.4,1.2,0.6,1.7
				c1.1,4.1,2.2,8.1,3.2,12.2c0.2,0.6-0.2,1.5-0.4,2.2c-0.6-0.6-1.4-1-1.5-1.7c-1.2-4.2-2.3-8.5-3.4-12.7c-0.2-0.6,0.2-1.2,0.4-1.8
				C352.4,652.1,353.1,652.2,353.5,652.3L353.5,652.3z"/>
			<path id="path11833" inkscape:connector-curvature="0" class="st3" d="M363.9,695c-0.5-0.6-1.2-1-1.4-1.7
				c-1.1-3.7-2.1-7.4-3-11.2c-0.2-0.7-0.5-1.4-0.6-2.2c0-0.5,0.4-1,0.6-1.5c0.5,0.3,1.1,0.5,1.4,0.9c0.5,1,0.6,2.2,1,3.3
				c0.9,3.4,1.8,6.7,2.6,10.1c0.2,0.6,0.1,1.2,0.2,1.8C364.4,694.7,364.1,694.9,363.9,695L363.9,695z"/>
			<path id="path11835" inkscape:connector-curvature="0" class="st3" d="M351.3,681.9c-0.9,0.9-1.8,1.9-2.7,2.6
				c-0.5,0.3-1.3,0.2-1.9,0.4c0.1-0.6-0.1-1.4,0.3-1.8c1.8-2,3.8-3.9,5.8-5.8c0.3-0.3,1.2-0.2,1.8-0.2c-0.1,0.6,0,1.4-0.3,1.8
				C353.3,680,352.3,681,351.3,681.9L351.3,681.9z"/>
			<path id="path11837" inkscape:connector-curvature="0" class="st3" d="M360.8,668.2c-0.6,0.1-1,0.2-1.3,0.1
				c-0.3-0.2-0.7-0.7-0.6-1c0.6-2.8,1.4-5.5,2.2-8.2c0.1-0.2,0.7-0.6,1.1-0.5c0.2,0,0.7,0.6,0.7,0.8
				C362.2,662.3,361.5,665.3,360.8,668.2L360.8,668.2z"/>
			<path id="path11839" inkscape:connector-curvature="0" class="st3" d="M357.9,678.8c-0.2,0.5-0.2,1-0.4,1.5
				c-0.6,2.3-1.2,4.6-1.9,6.9c-0.2,0.5-1,0.8-1.4,1.2c-0.2-0.6-0.6-1.2-0.6-1.7c0.6-2.4,1.1-4.8,1.9-7.1c0.2-0.6,1-0.9,1.5-1.3
				C357.3,678.5,357.6,678.6,357.9,678.8z"/>
			<path id="path11841" inkscape:connector-curvature="0" class="st3" d="M352.8,672.8c-0.6,0-1.1,0-1.7-0.2
				c-2.2-0.6-4.4-1.1-6.6-1.8c-0.6-0.2-1-0.9-1.4-1.4c0.6-0.2,1.3-0.8,1.8-0.6c2.3,0.5,4.6,1.1,7,1.8c0.6,0.2,1,1,1.4,1.4
				C353.2,672.4,353,672.6,352.8,672.8L352.8,672.8z"/>
			<path id="path11843" inkscape:connector-curvature="0" class="st3" d="M363.6,676.1c-0.2-0.6-0.4-1-0.3-1.2
				c0.3-0.3,0.9-0.8,1.2-0.7c2.6,0.6,5.3,1.4,7.9,2.1c0.3,0.1,0.6,0.8,0.6,1.3c0,0.2-0.6,0.7-0.8,0.6
				C369.4,677.5,366.5,676.8,363.6,676.1z"/>
		</g>
	</g>
	<g>
		<path class="st3" d="M218.2,237.7c-0.9-1.2-1.8-1.8-2.7-2c-0.8-0.1-1.6,0.1-2.5,0.8l-1.5,1.1l4.7,6.2l1.5-1.1
			c1.2-1,1.6-2.1,1.2-3.5C218.8,238.8,218.5,238.3,218.2,237.7z"/>
		<path class="st3" d="M211.7,230.4c-0.1-0.4-0.4-1-0.8-1.5c-0.7-0.9-1.4-1.3-2.2-1.4c-0.8-0.1-1.5,0.1-2.1,0.7l-1.5,1.1l4,5.4
			l1.5-1.1C211.7,232.7,212.1,231.6,211.7,230.4z"/>
		<path class="st3" d="M70.5,220.5l-1.9-1.8l-12.6,13.5l1.9,1.8c0.5,0.5,1.1,0.7,1.8,0.7c0.7,0,1.2-0.2,1.6-0.7l9.5-10
			c0.4-0.4,0.6-1,0.5-1.7C71.2,221.5,71,221,70.5,220.5z"/>
		<polygon class="st3" points="228.5,78.3 237.7,73.3 235.7,70.7 		"/>
		<path class="st3" d="M262.1,169.1l-13.4-3.2c-0.6-0.1-1.2-0.1-1.8,0.3c-0.5,0.4-0.9,0.9-1,1.5l-0.6,2.6l17.8,4.2l0.6-2.6
			c0.1-0.7,0.1-1.3-0.3-1.9C263.1,169.6,262.6,169.2,262.1,169.1z"/>
		<path class="st3" d="M319.9,118c-0.3-2-1.1-2.6-2.9-3c-14.3-2.7-28.8-5.4-43.2-7.8c-2.2-0.3-3-1.3-3.6-3.2
			c-3.2-10.4-7.8-20.3-13.6-29.5c-1.2-1.9-1.2-3.2,0.1-4.9c8.4-11.5,16.8-23.1,25.3-34.6c1.2-1.6,1.1-2.5-0.1-4
			c-9.1-11-19.2-20.9-30.3-29.8c-2.1-1.6-3.4-1.5-5.4-0.1c-10.8,7.5-21.7,14.9-32.5,22.4c-4,2.8-8.3,5.1-11.7,9
			c-6.2,7.1-13,13.9-19.5,20.8c42.5,19.8,63.2,64,56.1,105.8c-7,41-37.9,72.5-79.8,80.3c-39.2,7.3-82-10.4-104.1-50.9
			c-0.4,0.3-0.7,0.4-1,0.7c-20,19.6-37.4,41.4-53.3,64.4c-1,1.5-0.5,2.2,0.4,3.3c8.8,10.5,18.4,20,29,28.7c1.5,1.3,2.5,1.2,4,0.1
			c11.9-8.3,23.9-16.4,35.8-24.7c1.9-1.2,3.2-1.3,5.1-0.1c11.8,7.2,24.7,12,38.2,15c1.6,0.4,2,1,2.2,2.5c2.3,14.4,4.7,28.8,6.9,43.2
			c0.3,2.1,1.2,2.4,3,2.5c13.2,0.9,26.4,0.5,39.5-0.6c2.6-0.2,3.6-1,4-3.6c2.5-14.4,5.3-28.8,7.9-43.2c0.3-1.6,0.9-2.6,2.6-3
			c13-3.5,25.2-9.1,36.4-16.5c1.6-1.1,2.7-0.9,4.2,0.2c11.5,8.5,23.1,16.9,34.7,25.3c1.6,1.2,2.5,1.2,4-0.1
			c10.5-9.1,19.9-19.2,28.3-30.1c1.2-1.6,1-2.5-0.1-4c-8.4-12.1-16.8-24.4-25.3-36.4c-1.2-1.8-1.2-3-0.3-4.8
			c5.6-10.5,9.9-21.6,12-33.4c0.6-3.1,2.3-3.6,4.8-4c14-2.2,28-4.5,42-6.6c1.4-0.3,1.8-0.7,1.9-2.1c0.1-3.5,0.3-7,0.5-10.5
			C322.6,139.7,321.2,128.9,319.9,118z M59.8,238.7c-1.8-0.1-3.4-0.7-4.8-2.1l-5-4.7l18-19.1l5,4.7c1.4,1.3,2.1,2.9,2.3,4.7
			c0.1,1.8-0.4,3.4-1.6,4.6l-9.4,10C63.1,238.2,61.7,238.8,59.8,238.7z M83.7,244.6l-5-3.2l-3.8,6l6.9,4.3l-2.1,3.4L69,248.4
			l14.1-22.1l10.6,6.7l-2.1,3.4l-6.9-4.3l-3.8,6l5,3.2L83.7,244.6z M109.8,246.1l-4.2-1c0.3-1,0.3-1.9,0-2.7c-0.2-0.5-0.7-1-1.4-1.2
			c-0.8-0.3-1.4-0.2-2.1,0.2c-0.5,0.3-0.9,0.9-1.2,1.6c-0.4,1.1-0.4,2.5,0.2,4c0.2,0.6,0.6,1.4,1.2,2.3c0.7,1.1,1.1,1.9,1.2,2.3
			c0.7,1.3,1,2.5,1.2,3.6c0.1,0.5,0.1,1,0.1,1.4c0.1,1-0.1,1.9-0.3,2.5c-0.7,1.7-1.7,3-3.2,3.8c-1,0.5-2.1,0.8-3.5,0.6
			c-0.7-0.1-1.5-0.3-2.3-0.7c-1.6-0.7-2.8-1.5-3.6-2.6c-0.7-1-1-2.1-1.2-3.2c-0.1-1.2,0.1-2.5,0.5-3.8l4,1.3c-0.4,1.5-0.4,2.7,0,3.6
			c0.3,0.7,0.8,1.2,1.4,1.4c0.9,0.3,1.8,0.2,2.6-0.3c0.4-0.3,0.8-0.8,1-1.4c0.4-1,0.3-2.2-0.3-3.6c-0.5-1-1.3-2.5-2.4-4.5
			c-0.9-1.7-1.4-3.2-1.6-4.3c-0.1-1.3-0.1-2.6,0.4-3.8c0.9-2.2,2.3-3.6,4.5-4c1.3-0.3,2.7-0.1,4.3,0.5c1.4,0.6,2.6,1.4,3.4,2.3
			c0.6,0.8,1,1.6,1.2,2.7C110.1,243.9,110.1,245,109.8,246.1z M116.7,269l-4.3-1l5.8-25.6l4.3,1L116.7,269z M142.7,251.7l-0.2,3
			l-4.5-0.3l0.2-3.1c0.1-0.6-0.1-1.2-0.7-1.6c-0.4-0.5-1-0.7-1.8-0.8c-0.7-0.1-1.3,0.1-1.8,0.5c-0.5,0.4-0.8,1-0.8,1.5l-1,14.3
			c-0.1,0.6,0.1,1.2,0.6,1.6c0.4,0.5,1,0.7,1.8,0.8c0.7,0.1,1.3-0.1,1.8-0.5s0.8-1,0.8-1.5l0.3-5.1l-2.4-0.1l0.3-4l7,0.4l-0.6,9.2
			c-0.1,1.8-0.9,3.2-2.3,4.3c-1.4,1.1-3.2,1.6-5,1.5c-1.9-0.1-3.5-0.8-4.8-2.1c-1.2-1.3-1.9-2.9-1.8-4.5l1-14.3
			c0.1-1.8,0.9-3.2,2.3-4.3c1.4-1.2,3.2-1.6,5.1-1.5c1.9,0.1,3.5,0.8,4.8,2.1C142.2,248.4,142.8,250,142.7,251.7z M163,270.2
			l-8.2-15.9L157,271l-4.3,0.6l-3.5-26l4.9-0.7l8.1,16.7l-2.3-17.4l4.3-0.6l3.5,26L163,270.2z M214.2,71.3l4-9.1l-8.8,4.7l-3.6-3.3
			l14.7-7.2l7.5-8.1l3.2,3c0.1,0-7.4,8.1-7.4,8.1l-6,15.2L214.2,71.3z M221.8,79.5l17.8-19.8l2.8,3.7l-4.2,4.5l2.8,3.6l5.4-2.8
			l2.8,3.6l-23.8,11.9L221.8,79.5z M236.7,103.7l-2-4l19.9-10l-3.4-6.8c0.1,0.1,3.6-1.6,3.6-1.6l5.4,10.7L236.7,103.7z M181.9,254.1
			l-1.5-3.7l12-5.1l1.5,3.7L181.9,254.1z M223.3,242.3c-0.5,1.2-1.2,2.1-2.1,2.7l-6.5,4.8l-16-20.8l5.2-4c1.4-1,2.9-1.7,4.5-1.9
			c1.4-0.1,2.7,0.1,4,1c0.7,0.4,1.4,1.1,2.1,2c1,1.4,1.5,2.9,1.3,4.3c-0.1,0.6-0.3,1.2-0.6,1.8c1-0.3,2.1-0.3,3.2,0.1
			c0.8,0.3,1.5,0.7,2.3,1.4c0.4,0.4,0.8,0.8,1.2,1.4c1,1.3,1.6,2.6,1.8,4C224,240.1,223.7,241.2,223.3,242.3z M239.6,227.9
			c-1.2,1.5-2.8,2.3-4.6,2.5c-1.8,0.2-3.4-0.2-4.7-1.4L215,215.8l2.8-3.2l15.2,13.3c0.5,0.4,1,0.5,1.7,0.5c0.7-0.1,1.2-0.4,1.6-1
			c0.4-0.5,0.7-1.1,0.7-1.8s-0.3-1.2-0.7-1.6l-15.2-13.3l3-3.4l15.3,13.3c1.3,1.2,2,2.6,2,4.5C241.5,224.9,240.8,226.5,239.6,227.9z
			 M250.1,213.5l-22.2-13.9l2.3-3.7l22.2,13.9L250.1,213.5z M257.7,200.5l-24-10.6l1.8-4l20.5,8.9l3-6.9l3.6,1.6L257.7,200.5z
			 M267.5,172.9l-1.6,6.7l-25.5-6l1.6-6.7c0.4-1.9,1.4-3.3,2.9-4.3c1.5-1,3.1-1.3,4.8-1l13.3,3.2c1.7,0.4,3,1.4,3.8,3
			S267.9,171.1,267.5,172.9z M255.6,134.6l4-0.1l0.3,13l-4,0.1L255.6,134.6z M242.7,122.6l-1.9-6.7c-0.6-2.1-0.4-3.8,0.4-5.4
			c0.8-1.4,2.1-2.4,3.8-2.9l3.7-1c1.6-0.5,3.3-0.2,4.8,0.7c1.5,1,2.6,2.3,3.1,4.2l0.7,2.4l9.5-2.7l1.2,4.3L242.7,122.6z"/>
		<path class="st3" d="M251.5,110.9c-0.5-0.3-1.2-0.4-1.8-0.3l-3.6,1.1c-0.7,0.1-1.2,0.5-1.4,1.1c-0.3,0.5-0.3,1.2-0.1,1.9l0.7,2.5
			l8.1-2.3l-0.7-2.5C252.5,111.7,252.1,111.2,251.5,110.9z"/>
	</g>
</g>
</svg>
